<svg width="768" height="1487" fill="none" xmlns="http://www.w3.org/2000/svg"><g clip-path="url(#a)"><path d="M359.916 114.731a369.998 369.998 0 00-275.83 0L-672.13 418.496C-1049.88 570.236-896.088 1565.22-489 1565.22h1512.43c407.09 0 470.45-994.984 92.7-1146.724L359.916 114.731z" fill="#FFA400"/><path d="M626.586 61.648a370.001 370.001 0 00-251.173 0L-1493 745.726c-373.14 134.643-296.74 669.125 73.79 714.905 34.06 4.21 68.54 7.91 101.54 17.32L24 1860.61l1311.3-382.08c33.63-9.8 69.01-12.97 103.3-20.12 367.43-76.68 417.54-953.086 44.72-1087.613L626.586 61.648z" fill="url(#b)"/></g><defs><linearGradient id="b" x1="3933" y1="731.332" x2="-2931" y2="731.332" gradientUnits="userSpaceOnUse"><stop stop-color="#000026"/><stop offset=".525" stop-color="#000050"/><stop offset="1" stop-color="#00005B"/></linearGradient><clipPath id="a"><path fill="#fff" transform="translate(0 .612)" d="M0 0H768V1486H0z"/></clipPath></defs></svg>