<svg width="224" height="239" viewBox="0 0 224 239" fill="none" xmlns="http://www.w3.org/2000/svg">
<g filter="url(#filter0_d_4807_2279)">
<path fill-rule="evenodd" clip-rule="evenodd" d="M105.497 194.019C108.74 195.867 112.629 196.211 116.11 195.04C116.89 194.778 117.645 194.446 118.373 194.03L175.36 161.612C179.421 159.308 181.946 154.972 181.949 150.296L182 85.6402C182.004 80.9707 179.489 76.6292 175.435 74.3133L118.503 41.8108C114.537 39.5439 109.603 39.5378 105.627 41.7994L48.6396 74.2178C44.5798 76.5218 42.0563 80.8644 42.0522 85.5337L42 150.19C41.9983 154.865 44.5136 159.207 48.5651 161.516L105.497 194.019Z" fill="url(#paint0_linear_4807_2279)"/>
</g>
<path fill-rule="evenodd" clip-rule="evenodd" d="M112.648 128.961H123.004L124.577 127.386V127.373H112.648V128.961Z" fill="#041E42"/>
<path fill-rule="evenodd" clip-rule="evenodd" d="M112.648 133.183H118.781L120.369 131.595H112.648V133.183Z" fill="#041E42"/>
<path fill-rule="evenodd" clip-rule="evenodd" d="M88.2835 117.765H91.6235L95.1763 114.212H98.8568L99.9163 115.255H109.747L110.789 114.212L110.795 114.207L112.377 112.624H94.5177L90.966 116.177H86.6953V147.008H126.007V145.42H88.2835V117.765Z" fill="#041E42"/>
<path fill-rule="evenodd" clip-rule="evenodd" d="M99.3767 107.334H99.3823L100.204 108.141H116.859L117.668 107.334L117.908 107.094L119.256 105.745H99.9938L96.0009 102.085H88.2838V88.9749H123.211C124.755 88.9749 126.01 90.2305 126.01 91.7739V117.498H127.598V91.7739C127.598 89.3558 125.629 87.3867 123.211 87.3867H86.6956V103.673H95.3849L99.3767 107.334Z" fill="#041E42"/>
<path fill-rule="evenodd" clip-rule="evenodd" d="M121.353 139.953C118.756 140.449 116.127 139.906 113.943 138.423C111.759 136.94 110.282 134.695 109.787 132.101C109.289 129.508 109.834 126.876 111.317 124.691C112.801 122.507 115.045 121.03 117.639 120.535C118.265 120.415 118.894 120.355 119.516 120.355C121.477 120.355 123.391 120.94 125.05 122.065C127.234 123.549 128.71 125.793 129.206 128.387C130.23 133.741 126.707 138.929 121.353 139.953ZM130.765 128.089C129.578 121.875 123.553 117.797 117.341 118.975C111.127 120.164 107.039 126.186 108.226 132.399C108.803 135.409 110.516 138.015 113.052 139.737C114.976 141.043 117.197 141.72 119.47 141.72C120.195 141.72 120.924 141.652 121.651 141.513C124.661 140.936 127.266 139.224 128.988 136.688C130.71 134.152 131.341 131.099 130.765 128.089Z" fill="#041E42"/>
<path fill-rule="evenodd" clip-rule="evenodd" d="M129.787 139.153L128.664 140.275L136.738 148.349L137.86 147.226L129.787 139.153Z" fill="#041E42"/>
<defs>
<filter id="filter0_d_4807_2279" x="0.653702" y="0.264137" width="222.693" height="238.305" filterUnits="userSpaceOnUse" color-interpolation-filters="sRGB">
<feFlood flood-opacity="0" result="BackgroundImageFix"/>
<feColorMatrix in="SourceAlpha" type="matrix" values="0 0 0 0 0 0 0 0 0 0 0 0 0 0 0 0 0 0 127 0" result="hardAlpha"/>
<feOffset dy="1.5035"/>
<feGaussianBlur stdDeviation="20.6731"/>
<feColorMatrix type="matrix" values="0 0 0 0 0 0 0 0 0 0.529412 0 0 0 0 0.960784 0 0 0 0.297609 0"/>
<feBlend mode="normal" in2="BackgroundImageFix" result="effect1_dropShadow_4807_2279"/>
<feBlend mode="normal" in="SourceGraphic" in2="effect1_dropShadow_4807_2279" result="shape"/>
</filter>
<linearGradient id="paint0_linear_4807_2279" x1="52.226" y1="179.174" x2="52.226" y2="46.2945" gradientUnits="userSpaceOnUse">
<stop stop-color="#C9E3F8" stop-opacity="0.01"/>
<stop offset="1" stop-color="white"/>
</linearGradient>
</defs>
</svg>
