<svg width="1920" height="1175" fill="none" xmlns="http://www.w3.org/2000/svg"><g clip-path="url(#a)"><path d="M1015.92 115.012a370.012 370.012 0 00-275.835 0L-16.129 418.777C-393.881 570.517-240.09 1565.51 167 1565.51h1512.43c407.08 0 470.45-994.993 92.7-1146.733l-756.21-303.765z" fill="#FFA400"/><path d="M1282.59 61.93a370.022 370.022 0 00-251.18 0L-837 746.004c-389.93 140.703-288.95 718.035 125.586 718.035H2042c414.54 0 487.25-952.259 97.32-1092.962L1282.59 61.929z" fill="url(#b)"/></g><defs><linearGradient id="b" x1="4589" y1="731.612" x2="-2275" y2="731.612" gradientUnits="userSpaceOnUse"><stop stop-color="#000026"/><stop offset=".525" stop-color="#000050"/><stop offset="1" stop-color="#00005B"/></linearGradient><clipPath id="a"><path fill="#fff" transform="translate(0 .612)" d="M0 0H1920V1174H0z"/></clipPath></defs></svg>