<svg width="298" height="318" viewBox="0 0 298 318" fill="none" xmlns="http://www.w3.org/2000/svg">
<g filter="url(#filter0_d_4807_1205)">
<path fill-rule="evenodd" clip-rule="evenodd" d="M140.35 257.845C144.664 260.304 149.837 260.76 154.467 259.203C155.504 258.855 156.51 258.413 157.478 257.86L233.284 214.736C238.685 211.671 242.045 205.904 242.048 199.684L242.116 113.677C242.122 107.465 238.776 101.69 233.384 98.6092L157.65 55.3734C152.375 52.358 145.811 52.3499 140.523 55.3583L64.7163 98.4822C59.3157 101.547 55.9589 107.324 55.9535 113.535L55.8841 199.542C55.8817 205.762 59.2278 211.537 64.6171 214.609L140.35 257.845Z" fill="url(#paint0_linear_4807_1205)"/>
</g>
<path fill-rule="evenodd" clip-rule="evenodd" d="M149.861 171.303H163.637L165.731 169.209V169.191H149.861V171.303Z" fill="#041E42"/>
<path fill-rule="evenodd" clip-rule="evenodd" d="M149.861 176.92H158.02L160.133 174.807H149.861V176.92Z" fill="#041E42"/>
<path fill-rule="evenodd" clip-rule="evenodd" d="M117.452 156.41H121.894L126.62 151.684H131.516L132.926 153.071H146.003L147.388 151.684L147.397 151.677L149.501 149.571H125.744L121.02 154.297H115.339V195.31H167.632V193.197H117.452V156.41Z" fill="#041E42"/>
<path fill-rule="evenodd" clip-rule="evenodd" d="M132.208 142.534H132.216L133.309 143.608H155.464L156.54 142.534L156.859 142.215L158.653 140.421H133.029L127.718 135.552H117.452V118.113H163.914C165.967 118.113 167.637 119.783 167.637 121.836V156.055H169.75V121.836C169.75 118.619 167.13 116 163.914 116H115.339V137.665H126.898L132.208 142.534Z" fill="#041E42"/>
<path fill-rule="evenodd" clip-rule="evenodd" d="M161.442 185.925C157.987 186.585 154.49 185.862 151.585 183.89C148.679 181.917 146.714 178.931 146.055 175.481C145.394 172.031 146.118 168.53 148.091 165.623C150.065 162.718 153.051 160.753 156.501 160.094C157.334 159.935 158.17 159.856 158.998 159.856C161.606 159.856 164.152 160.634 166.359 162.129C169.264 164.104 171.228 167.089 171.888 170.54C173.249 177.662 168.564 184.563 161.442 185.925ZM173.962 170.144C172.382 161.878 164.368 156.453 156.105 158.02C147.839 159.601 142.401 167.612 143.98 175.877C144.747 179.88 147.025 183.347 150.399 185.637C152.958 187.374 155.913 188.276 158.937 188.276C159.901 188.276 160.871 188.185 161.838 188C165.842 187.233 169.307 184.955 171.597 181.582C173.889 178.209 174.727 174.147 173.962 170.144Z" fill="#041E42"/>
<path fill-rule="evenodd" clip-rule="evenodd" d="M172.66 184.861L171.167 186.354L181.906 197.093L183.399 195.6L172.66 184.861Z" fill="#041E42"/>
<defs>
<filter id="filter0_d_4807_1205" x="0.884064" y="0.106934" width="296.232" height="317" filterUnits="userSpaceOnUse" color-interpolation-filters="sRGB">
<feFlood flood-opacity="0" result="BackgroundImageFix"/>
<feColorMatrix in="SourceAlpha" type="matrix" values="0 0 0 0 0 0 0 0 0 0 0 0 0 0 0 0 0 0 127 0" result="hardAlpha"/>
<feOffset dy="2"/>
<feGaussianBlur stdDeviation="27.5"/>
<feColorMatrix type="matrix" values="0 0 0 0 0 0 0 0 0 0.529412 0 0 0 0 0.960784 0 0 0 0.297609 0"/>
<feBlend mode="normal" in2="BackgroundImageFix" result="effect1_dropShadow_4807_1205"/>
<feBlend mode="normal" in="SourceGraphic" in2="effect1_dropShadow_4807_1205" result="shape"/>
</filter>
<linearGradient id="paint0_linear_4807_1205" x1="69.487" y1="238.098" x2="69.487" y2="61.3378" gradientUnits="userSpaceOnUse">
<stop stop-color="#C9E3F8" stop-opacity="0.01"/>
<stop offset="1" stop-color="white"/>
</linearGradient>
</defs>
</svg>
