<svg width="224" height="239" viewBox="0 0 224 239" fill="none" xmlns="http://www.w3.org/2000/svg">
<g filter="url(#filter0_d_4807_2271)">
<path fill-rule="evenodd" clip-rule="evenodd" d="M105.497 194.019C108.74 195.867 112.629 196.211 116.11 195.04C116.89 194.778 117.645 194.446 118.373 194.03L175.36 161.612C179.421 159.308 181.946 154.972 181.949 150.296L182 85.6402C182.004 80.9707 179.489 76.6292 175.435 74.3133L118.503 41.8108C114.537 39.5439 109.603 39.5378 105.627 41.7994L48.6396 74.2178C44.5798 76.5218 42.0563 80.8644 42.0522 85.5337L42 150.19C41.9983 154.865 44.5136 159.207 48.5651 161.516L105.497 194.019Z" fill="url(#paint0_linear_4807_2271)"/>
</g>
<path fill-rule="evenodd" clip-rule="evenodd" d="M131.713 146.843H122.456V133.745L118.77 130.06V126.241L119.864 125.138V114.969L118.776 113.881L118.77 113.984V113.876L117.147 112.252V130.734L120.833 134.419V146.843H107.837V129.834L111.496 125.843L112.484 124.839V107.589L111.634 106.739L111.397 106.502L110.01 105.116V125.062L106.213 129.204V146.843H97.2414V121.478H96.1055V146.843H92.55V103.929H99.7824L101.406 102.306H92.55V99.5493H104.162L105.784 97.9279V97.9256H92.55V88.2587H128.797C130.404 88.2587 131.713 89.5664 131.713 91.1753V146.843ZM128.797 86.635H90.9263V148.467H133.337V91.1753C133.337 88.671 131.301 86.635 128.797 86.635Z" fill="#041E42"/>
<defs>
<filter id="filter0_d_4807_2271" x="0.653702" y="0.264137" width="222.693" height="238.305" filterUnits="userSpaceOnUse" color-interpolation-filters="sRGB">
<feFlood flood-opacity="0" result="BackgroundImageFix"/>
<feColorMatrix in="SourceAlpha" type="matrix" values="0 0 0 0 0 0 0 0 0 0 0 0 0 0 0 0 0 0 127 0" result="hardAlpha"/>
<feOffset dy="1.5035"/>
<feGaussianBlur stdDeviation="20.6731"/>
<feColorMatrix type="matrix" values="0 0 0 0 0 0 0 0 0 0.529412 0 0 0 0 0.960784 0 0 0 0.297609 0"/>
<feBlend mode="normal" in2="BackgroundImageFix" result="effect1_dropShadow_4807_2271"/>
<feBlend mode="normal" in="SourceGraphic" in2="effect1_dropShadow_4807_2271" result="shape"/>
</filter>
<linearGradient id="paint0_linear_4807_2271" x1="52.226" y1="179.174" x2="52.226" y2="46.2945" gradientUnits="userSpaceOnUse">
<stop stop-color="#C9E3F8" stop-opacity="0.01"/>
<stop offset="1" stop-color="white"/>
</linearGradient>
</defs>
</svg>
