<svg width="297" height="318" viewBox="0 0 297 318" fill="none" xmlns="http://www.w3.org/2000/svg">
<g filter="url(#filter0_d_4807_1542)">
<path fill-rule="evenodd" clip-rule="evenodd" d="M139.683 257.845C143.997 260.304 149.17 260.76 153.801 259.203C154.838 258.855 155.843 258.413 156.811 257.86L232.617 214.736C238.018 211.671 241.378 205.904 241.381 199.684L241.449 113.677C241.455 107.465 238.109 101.69 232.717 98.6092L156.984 55.3734C151.708 52.358 145.144 52.3499 139.856 55.3583L64.0495 98.4822C58.649 101.547 55.2921 107.324 55.2867 113.535L55.2173 199.542C55.215 205.762 58.561 211.537 63.9504 214.609L139.683 257.845Z" fill="url(#paint0_linear_4807_1542)"/>
</g>
<path fill-rule="evenodd" clip-rule="evenodd" d="M149.195 171.303H162.971L165.064 169.209V169.191H149.195V171.303Z" fill="#041E42"/>
<path fill-rule="evenodd" clip-rule="evenodd" d="M149.195 176.92H157.354L159.466 174.807H149.195V176.92Z" fill="#041E42"/>
<path fill-rule="evenodd" clip-rule="evenodd" d="M116.785 156.41H121.228L125.954 151.684H130.85L132.259 153.071H145.336L146.722 151.684L146.731 151.677L148.834 149.571H125.078L120.353 154.297H114.672V195.31H166.965V193.197H116.785V156.41Z" fill="#041E42"/>
<path fill-rule="evenodd" clip-rule="evenodd" d="M131.541 142.534H131.549L132.642 143.608H154.797L155.873 142.534L156.192 142.215L157.986 140.421H132.362L127.051 135.552H116.785V118.113H163.247C165.3 118.113 166.97 119.783 166.97 121.836V156.055H169.083V121.836C169.083 118.619 166.464 116 163.247 116H114.673V137.665H126.231L131.541 142.534Z" fill="#041E42"/>
<path fill-rule="evenodd" clip-rule="evenodd" d="M160.775 185.925C157.32 186.585 153.823 185.862 150.918 183.89C148.012 181.917 146.047 178.931 145.389 175.481C144.727 172.031 145.451 168.53 147.424 165.623C149.398 162.718 152.384 160.753 155.834 160.094C156.667 159.935 157.503 159.856 158.332 159.856C160.939 159.856 163.485 160.634 165.692 162.129C168.597 164.104 170.561 167.089 171.221 170.54C172.583 177.662 167.897 184.563 160.775 185.925ZM173.295 170.144C171.716 161.878 163.701 156.453 155.438 158.02C147.172 159.601 141.734 167.612 143.313 175.877C144.081 179.88 146.359 183.347 149.732 185.637C152.292 187.374 155.246 188.276 158.271 188.276C159.235 188.276 160.205 188.185 161.172 188C165.175 187.233 168.64 184.955 170.93 181.582C173.222 178.209 174.061 174.147 173.295 170.144Z" fill="#041E42"/>
<path fill-rule="evenodd" clip-rule="evenodd" d="M171.993 184.861L170.5 186.354L181.24 197.093L182.732 195.6L171.993 184.861Z" fill="#041E42"/>
<defs>
<filter id="filter0_d_4807_1542" x="0.217285" y="0.106934" width="296.232" height="317" filterUnits="userSpaceOnUse" color-interpolation-filters="sRGB">
<feFlood flood-opacity="0" result="BackgroundImageFix"/>
<feColorMatrix in="SourceAlpha" type="matrix" values="0 0 0 0 0 0 0 0 0 0 0 0 0 0 0 0 0 0 127 0" result="hardAlpha"/>
<feOffset dy="2"/>
<feGaussianBlur stdDeviation="27.5"/>
<feColorMatrix type="matrix" values="0 0 0 0 0 0 0 0 0 0.529412 0 0 0 0 0.960784 0 0 0 0.297609 0"/>
<feBlend mode="normal" in2="BackgroundImageFix" result="effect1_dropShadow_4807_1542"/>
<feBlend mode="normal" in="SourceGraphic" in2="effect1_dropShadow_4807_1542" result="shape"/>
</filter>
<linearGradient id="paint0_linear_4807_1542" x1="68.8202" y1="238.098" x2="68.8202" y2="61.3378" gradientUnits="userSpaceOnUse">
<stop stop-color="#C9E3F8" stop-opacity="0.01"/>
<stop offset="1" stop-color="white"/>
</linearGradient>
</defs>
</svg>
