<svg width="375" height="1101" fill="none" xmlns="http://www.w3.org/2000/svg"><g clip-path="url(#a)"><path d="M175.156 54.525a174.189 174.189 0 00-129.856 0l-356.009 143.006c-177.837 71.436-105.435 539.855 86.213 539.855h712.018c191.649 0 221.48-468.419 43.643-539.855L175.156 54.525z" fill="#FFA400"/><path d="M300.698 29.536a174.19 174.19 0 00-118.247 0l-879.609 322.048C-880.727 417.824-832.155 1696.92-637 1696.92l678.5-40 587.5-45.5c195.155 0 258.601-1370.104 75.031-1436.344L300.698 29.536z" fill="url(#b)"/></g><defs><linearGradient id="b" x1="1857.29" y1="344.808" x2="-1374.14" y2="344.808" gradientUnits="userSpaceOnUse"><stop stop-color="#000026"/><stop offset=".525" stop-color="#000050"/><stop offset="1" stop-color="#00005B"/></linearGradient><clipPath id="a"><path fill="#fff" transform="translate(0 .612)" d="M0 0H375V1100.21H0z"/></clipPath></defs></svg>