<svg width="4100" height="770" viewBox="0 0 4100 770" fill="none" xmlns="http://www.w3.org/2000/svg">
<g clip-path="url(#clip0_4828_648)">
<path fill-rule="evenodd" clip-rule="evenodd" d="M1673.57 638.802C1769.3 693.364 1884.12 703.503 1986.89 668.945C2009.9 661.214 2032.21 651.401 2053.69 639.127L3736.07 -317.922C3855.95 -385.949 3930.5 -513.946 3930.57 -651.98L3932.09 -2560.76C3932.22 -2698.62 3857.96 -2826.79 3738.29 -2895.16L2057.52 -3854.7C1940.44 -3921.62 1794.77 -3921.8 1677.41 -3855.03L-4.98486 -2897.98C-124.84 -2829.96 -199.339 -2701.75 -199.459 -2563.91L-201 -655.134C-201.051 -517.1 -126.792 -388.914 -7.18506 -320.75L1673.57 638.802Z" fill="#FFA400"/>
<path fill-rule="evenodd" clip-rule="evenodd" d="M1501.57 688.802C1597.3 743.364 1712.12 753.503 1814.89 718.945C1837.9 711.214 1860.21 701.401 1881.69 689.127L3564.07 -267.922C3683.95 -335.949 3758.5 -463.946 3758.57 -601.98L3760.09 -2510.76C3760.22 -2648.62 3685.96 -2776.79 3566.29 -2845.16L1885.52 -3804.7C1768.44 -3871.62 1622.77 -3871.8 1505.41 -3805.03L-176.985 -2847.98C-296.84 -2779.96 -371.339 -2651.75 -371.459 -2513.91L-373 -605.134C-373.051 -467.1 -298.792 -338.914 -179.185 -270.75L1501.57 688.802Z" fill="url(#paint0_radial_4828_648)"/>
</g>
<defs>
<radialGradient id="paint0_radial_4828_648" cx="0" cy="0" r="1" gradientUnits="userSpaceOnUse" gradientTransform="translate(1303.3 -814.416) rotate(72.7101) scale(2789 2398.09)">
<stop stop-color="#00005B"/>
<stop offset="1" stop-color="#000026"/>
</radialGradient>
<clipPath id="clip0_4828_648">
<rect width="4100" height="770" fill="white"/>
</clipPath>
</defs>
</svg>
