<svg width="1920" height="770" fill="none" xmlns="http://www.w3.org/2000/svg"><g clip-path="url(#a)" fill-rule="evenodd" clip-rule="evenodd"><path d="M506.453 650.802c95.73 54.562 210.543 64.701 313.311 30.143 23.012-7.731 45.322-17.544 66.802-29.818L2568.95-305.922c119.87-68.027 194.43-196.024 194.5-334.058l1.52-1908.78c.13-137.86-74.13-266.03-193.8-334.4L890.401-3842.7c-117.081-66.92-262.757-67.1-380.113-.33l-1682.398 957.05c-119.85 68.02-194.35 196.23-194.47 334.07l-1.54 1908.776c-.05 138.034 74.21 266.22 193.81 334.384L506.453 650.802z" fill="#FFA400"/><path d="M334.453 700.802c95.73 54.562 210.543 64.701 313.311 30.143 23.012-7.731 45.322-17.544 66.802-29.818L2396.95-255.922c119.87-68.027 194.43-196.024 194.5-334.058l1.52-1908.78c.13-137.86-74.13-266.03-193.8-334.4L718.401-3792.7c-117.081-66.92-262.757-67.1-380.113-.33l-1682.398 957.05c-119.85 68.02-194.35 196.23-194.47 334.07l-1.54 1908.776c-.05 138.034 74.21 266.22 193.81 334.384L334.453 700.802z" fill="url(#b)"/></g><defs><radialGradient id="b" cx="0" cy="0" r="1" gradientUnits="userSpaceOnUse" gradientTransform="rotate(72.71 613.168 -308.704) scale(2789 2398.09)"><stop stop-color="#00005B"/><stop offset="1" stop-color="#000026"/></radialGradient><clipPath id="a"><path fill="#fff" d="M0 0H1920V770H0z"/></clipPath></defs></svg>