<svg width="768" height="1186" fill="none" xmlns="http://www.w3.org/2000/svg"><g clip-path="url(#a)" fill-rule="evenodd" clip-rule="evenodd"><path d="M363.574 1081.8c95.731 54.56 210.544 64.7 313.311 30.15 23.012-7.74 45.323-17.55 66.803-29.82L2426.07 125.078c119.88-68.027 194.43-196.024 194.5-334.058l1.52-1908.78c.13-137.86-74.13-266.03-193.8-334.4L747.523-3411.7c-117.082-66.92-262.758-67.1-380.113-.33l-1682.39 957.05c-119.86 68.02-194.36 196.23-194.48 334.07L-1511-212.134c-.05 138.034 74.21 266.22 193.81 334.384L363.574 1081.8z" fill="#FFA400"/><path d="M191.574 1131.8c95.731 54.56 210.544 64.7 313.311 30.15 23.012-7.74 45.323-17.55 66.803-29.82L2254.07 175.078c119.88-68.027 194.43-196.024 194.5-334.058l1.52-1908.78c.13-137.86-74.13-266.03-193.8-334.4L575.523-3361.7c-117.082-66.92-262.758-67.1-380.113-.33l-1682.39 957.05c-119.86 68.02-194.36 196.23-194.48 334.07L-1683-162.134c-.05 138.034 74.21 266.22 193.81 334.384L191.574 1131.8z" fill="url(#b)"/></g><defs><radialGradient id="b" cx="0" cy="0" r="1" gradientUnits="userSpaceOnUse" gradientTransform="rotate(72.71 248.95 -190.261) scale(2789 2398.09)"><stop stop-color="#00005B"/><stop offset="1" stop-color="#000026"/></radialGradient><clipPath id="a"><path fill="#fff" d="M0 0H768V1186H0z"/></clipPath></defs></svg>