<svg width="375" height="1444" fill="none" xmlns="http://www.w3.org/2000/svg"><g clip-path="url(#a)" fill-rule="evenodd" clip-rule="evenodd"><path d="M165.288 1386.9c47.865 27.28 105.271 32.35 156.655 15.07 11.506-3.86 22.661-8.77 33.401-14.91l841.196-478.521c59.93-34.013 97.21-98.012 97.25-167.029l.75-954.392c.07-68.927-37.06-133.011-96.89-167.196L357.262-859.85c-58.541-33.46-131.379-33.55-190.057-.167l-841.197 478.529c-59.928 34.009-97.177 98.111-97.237 167.033L-772 739.933c-.025 69.017 37.104 133.11 96.908 167.192l840.38 479.775z" fill="#FFA400"/><path d="M79.288 1411.9c47.865 27.28 105.271 32.35 156.655 15.07 11.506-3.86 22.661-8.77 33.401-14.91l841.196-478.521c59.93-34.013 97.21-98.012 97.25-167.029l.75-954.392c.07-68.927-37.06-133.011-96.89-167.196L271.262-834.85c-58.541-33.46-131.379-33.55-190.057-.167l-841.197 478.529c-59.928 34.009-97.177 98.111-97.237 167.033L-858 764.933c-.025 69.017 37.104 133.11 96.908 167.192L79.288 1411.9z" fill="url(#b)"/></g><defs><radialGradient id="b" cx="0" cy="0" r="1" gradientUnits="userSpaceOnUse" gradientTransform="matrix(414.45456 1331.48701 -1144.86877 356.36553 -19.851 660.292)"><stop stop-color="#00005B"/><stop offset="1" stop-color="#000026"/></radialGradient><clipPath id="a"><path fill="#fff" d="M0 0H375V1444H0z"/></clipPath></defs></svg>