<svg width="767" height="1444" fill="none" xmlns="http://www.w3.org/2000/svg"><g clip-path="url(#a)" fill-rule="evenodd" clip-rule="evenodd"><path d="M330.288 1393.9c47.865 27.28 105.271 32.35 156.655 15.07 11.506-3.86 22.661-8.77 33.401-14.91l841.196-478.521c59.93-34.013 97.21-98.012 97.25-167.029l.75-954.392c.07-68.927-37.06-133.011-96.89-167.196L522.262-852.85c-58.541-33.46-131.379-33.55-190.057-.167l-841.197 478.529c-59.928 34.009-97.177 98.111-97.237 167.033L-607 746.933c-.025 69.017 37.104 133.11 96.908 167.192l840.38 479.775z" fill="#FFA400"/><path d="M244.288 1418.9c47.865 27.28 105.271 32.35 156.655 15.07 11.506-3.86 22.661-8.77 33.401-14.91l841.196-478.521c59.93-34.013 97.21-98.012 97.25-167.029l.75-954.392c.07-68.927-37.06-133.011-96.89-167.196L436.262-827.85c-58.541-33.46-131.379-33.55-190.057-.167l-841.197 478.529c-59.928 34.009-97.177 98.111-97.237 167.033L-693 771.933c-.025 69.017 37.104 133.11 96.908 167.192l840.38 479.775z" fill="url(#b)"/></g><defs><radialGradient id="b" cx="0" cy="0" r="1" gradientUnits="userSpaceOnUse" gradientTransform="matrix(414.45456 1331.48701 -1144.86877 356.36553 145.149 667.292)"><stop stop-color="#00005B"/><stop offset="1" stop-color="#000026"/></radialGradient><clipPath id="a"><path fill="#fff" d="M0 0H767V1444H0z"/></clipPath></defs></svg>