<svg width="277" height="74" viewBox="0 0 277 74" fill="none" xmlns="http://www.w3.org/2000/svg">
<mask id="mask0_4828_1135" style="mask-type:luminance" maskUnits="userSpaceOnUse" x="126" y="7" width="3" height="3">
<path fill-rule="evenodd" clip-rule="evenodd" d="M126.185 7.37769H128.635V9.74496H126.185V7.37769Z" fill="white"/>
</mask>
<g mask="url(#mask0_4828_1135)">
<path fill-rule="evenodd" clip-rule="evenodd" d="M127.239 8.49153H127.385C127.56 8.49153 127.646 8.42659 127.646 8.29758C127.646 8.23264 127.625 8.18675 127.581 8.15731C127.538 8.12787 127.469 8.11402 127.376 8.11402H127.241V8.49153H127.239ZM127.843 8.521C127.784 8.58075 127.709 8.62447 127.616 8.65218L127.973 9.18469H127.649L127.354 8.69461H127.238V9.18469H126.962V7.9084H127.339C127.732 7.9084 127.928 8.03742 127.928 8.29631C127.93 8.38679 127.901 8.46083 127.843 8.521ZM127.903 9.39506C128.05 9.31323 128.165 9.1998 128.246 9.05564C128.329 8.91017 128.37 8.74782 128.37 8.56556C128.37 8.38416 128.329 8.21965 128.246 8.07288C128.165 7.92612 128.05 7.81139 127.903 7.72827C127.756 7.64558 127.589 7.60315 127.403 7.60315C127.222 7.60315 127.059 7.64558 126.914 7.72827C126.768 7.81139 126.655 7.92612 126.573 8.07288C126.49 8.21965 126.449 8.38286 126.449 8.56556C126.449 8.74782 126.49 8.91017 126.573 9.05564C126.655 9.1998 126.768 9.31323 126.914 9.39506C127.059 9.47688 127.222 9.51758 127.403 9.51758C127.59 9.51758 127.756 9.47688 127.903 9.39506ZM128.029 7.537C128.218 7.64307 128.366 7.78724 128.473 7.9695C128.58 8.1509 128.635 8.35005 128.635 8.56565C128.635 8.78125 128.582 8.9791 128.473 9.1605C128.366 9.34017 128.217 9.48303 128.029 9.5878C127.84 9.69257 127.632 9.74496 127.404 9.74496C127.182 9.74496 126.976 9.69257 126.79 9.5878C126.602 9.48303 126.456 9.34017 126.347 9.1605C126.239 8.9804 126.185 8.78255 126.185 8.56565C126.185 8.35005 126.239 8.1509 126.347 7.9695C126.454 7.78854 126.602 7.64437 126.79 7.537C126.976 7.43137 127.182 7.37769 127.404 7.37769C127.632 7.37769 127.84 7.43007 128.029 7.537Z" fill="white"/>
</g>
<path fill-rule="evenodd" clip-rule="evenodd" d="M41.3253 11.3847C41.2461 11.4613 41.1504 11.4981 41.0383 11.4981H37.5952C37.4831 11.4981 37.4268 11.5518 37.4268 11.6604V19.4839C37.4268 20.3074 37.613 20.9018 37.9831 21.2694C38.3546 21.6382 38.9455 21.8209 39.7555 21.8209H40.769C40.8812 21.8209 40.9768 21.859 41.0561 21.9343C41.1353 22.011 41.1747 22.1028 41.1747 22.2101V24.6449C41.1747 24.8835 41.0396 25.0237 40.7703 25.067L39.0144 25.0991C37.2367 25.0991 35.9081 24.8068 35.0314 24.2224C34.1547 23.6379 33.7031 22.534 33.6815 20.9109V11.6591C33.6815 11.5505 33.6252 11.4968 33.5131 11.4968H31.5887C31.4761 11.4968 31.3805 11.46 31.3017 11.3834C31.2224 11.308 31.1826 11.2162 31.1826 11.1076V8.83512C31.1826 8.72645 31.2224 8.63467 31.3017 8.55934C31.3805 8.48401 31.4748 8.44591 31.5887 8.44591H33.5131C33.6252 8.44591 33.6815 8.39223 33.6815 8.28356V4.48589C33.6815 4.37765 33.7209 4.28544 33.8001 4.21054C33.8793 4.13521 33.9737 4.09668 34.0872 4.09668H37.0237C37.1359 4.09668 37.2315 4.13521 37.3108 4.21054C37.39 4.28674 37.4294 4.37895 37.4294 4.48589V8.28356C37.4294 8.39223 37.4857 8.44591 37.5978 8.44591H41.0409C41.153 8.44591 41.2487 8.48401 41.3279 8.55934C41.4072 8.63597 41.4466 8.72775 41.4466 8.83512V11.1076C41.4427 11.2175 41.4033 11.3093 41.3253 11.3847Z" fill="white"/>
<path fill-rule="evenodd" clip-rule="evenodd" d="M47.103 12.0341C46.5519 12.435 46.1627 12.9913 45.938 13.7057C45.8025 14.0745 45.712 14.5494 45.6674 15.1339C45.6215 15.2421 45.6674 15.2958 45.8025 15.2958H52.6554C52.7675 15.2958 52.8238 15.2421 52.8238 15.1339C52.7779 14.5927 52.7116 14.1819 52.6207 13.8996C52.4181 13.1199 52.0185 12.5151 51.4228 12.0813C50.8267 11.6488 50.0777 11.4319 49.178 11.4319C48.346 11.4332 47.6541 11.6332 47.103 12.0341ZM56.8084 16.6934L56.775 17.6999C56.775 17.9606 56.6395 18.0891 56.3703 18.0891H45.8041C45.692 18.0891 45.6357 18.1441 45.6357 18.2515C45.7032 18.9658 45.8041 19.452 45.9396 19.7126C46.4795 21.2708 47.7965 22.0604 49.8893 22.0821C51.4192 22.0821 52.6341 21.476 53.535 20.2638C53.6242 20.1334 53.738 20.0685 53.8731 20.0685C53.9623 20.0685 54.0415 20.1005 54.1091 20.1655L56.2018 21.8206C56.4049 21.9725 56.4382 22.1448 56.3027 22.3401C55.6048 23.2921 54.6771 24.0285 53.5185 24.5476C52.3596 25.0671 51.0707 25.3273 49.6529 25.3273C47.8969 25.3273 46.4068 24.9485 45.1803 24.1918C43.9538 23.435 43.0593 22.373 42.4965 21.0101C41.9783 19.8412 41.7207 18.2182 41.7207 16.1405C41.7207 14.8863 41.8558 13.8681 42.1251 13.0896C42.5757 11.5748 43.4243 10.3791 44.6737 9.50237C45.9227 8.62568 47.425 8.18799 49.1797 8.18799C53.6129 8.18799 56.1101 10.4172 56.6729 14.8759C56.7634 15.4158 56.8084 16.0219 56.8084 16.6934Z" fill="white"/>
<path fill-rule="evenodd" clip-rule="evenodd" d="M70.9322 9.74477C72.0232 10.7834 72.5695 12.2012 72.5695 13.9979V24.6459C72.5695 24.7545 72.5297 24.8463 72.4509 24.9216C72.3717 24.9983 72.276 25.0351 72.1634 25.0351H69.0576C68.9455 25.0351 68.8493 24.9983 68.7706 24.9216C68.6913 24.8463 68.6519 24.7545 68.6519 24.6459V14.7763C68.6519 13.781 68.3597 12.9744 67.7739 12.3584C67.1882 11.7419 66.4124 11.4332 65.4448 11.4332C64.4776 11.4332 63.6953 11.7367 63.0996 12.3415C62.5034 12.9476 62.2047 13.7494 62.2047 14.7447V24.6459C62.2047 24.7545 62.1653 24.8463 62.0861 24.9216C62.0069 24.9983 61.9112 25.0351 61.7991 25.0351H58.6932C58.5806 25.0351 58.485 24.9983 58.4057 24.9216C58.3269 24.8463 58.2871 24.7545 58.2871 24.6459V8.83604C58.2871 8.72781 58.3269 8.63603 58.4057 8.5607C58.485 8.48537 58.5793 8.44684 58.6932 8.44684H61.7991C61.9112 8.44684 62.0069 8.48537 62.0861 8.5607C62.1653 8.63689 62.2047 8.72911 62.2047 8.83604V9.87508C62.2047 9.94002 62.2264 9.98331 62.2727 10.005C62.3173 10.0266 62.3515 10.005 62.3731 9.94002C63.2961 8.7711 64.6906 8.18665 66.5591 8.18665C68.3826 8.18665 69.8399 8.70616 70.9322 9.74477Z" fill="white"/>
<path fill-rule="evenodd" clip-rule="evenodd" d="M83.5565 21.4646C84.344 20.9018 84.738 20.187 84.738 19.322V17.7959C84.738 17.6873 84.6821 17.6336 84.5696 17.6336H81.7343C80.5411 17.6336 79.6017 17.8505 78.9155 18.2834C78.2289 18.7159 77.8855 19.3333 77.8855 20.1338C77.8855 20.8264 78.1496 21.3624 78.6791 21.7404C79.2077 22.1192 79.8892 22.3079 80.7208 22.3079C81.8235 22.3092 82.769 22.0287 83.5565 21.4646ZM85.4056 8.90137C86.4853 9.37716 87.3187 10.0318 87.9032 10.8652C88.4876 11.6985 88.7807 12.6454 88.7807 13.7061V24.6458C88.7807 24.7545 88.7413 24.8463 88.6621 24.9216C88.5833 24.9982 88.4876 25.035 88.3751 25.035H85.2692C85.1566 25.035 85.061 24.9982 84.9817 24.9216C84.9029 24.8463 84.8631 24.7545 84.8631 24.6458V23.6072C84.8631 23.5423 84.8402 23.505 84.7956 23.4938C84.7497 23.4834 84.7051 23.4985 84.6605 23.5423C83.5578 24.7112 81.9603 25.2956 79.8671 25.2956C78.1791 25.2956 76.7894 24.8848 75.6984 24.0613C74.6061 23.2396 74.061 22.0157 74.061 20.3927C74.061 18.7042 74.6736 17.3899 75.901 16.4482C77.1275 15.5066 78.8553 15.0356 81.0823 15.0356H84.6934C84.806 15.0356 84.8618 14.9819 84.8618 14.8737V14.094C84.8618 13.2502 84.6029 12.5956 84.086 12.1297C83.5678 11.6639 82.792 11.4319 81.7573 11.4319C80.9022 11.4319 80.2091 11.5773 79.6809 11.8696C79.1514 12.1618 78.8194 12.5674 78.6856 13.087C78.6181 13.3471 78.4596 13.4558 78.2133 13.4112L74.939 13.022C74.8265 13.0004 74.7308 12.9631 74.652 12.9082C74.5728 12.8549 74.5446 12.7843 74.5676 12.6978C74.7477 11.3782 75.4836 10.295 76.779 9.4512C78.073 8.60784 79.6987 8.1853 81.6564 8.1853C83.0768 8.1866 84.3258 8.42515 85.4056 8.90137Z" fill="white"/>
<path fill-rule="evenodd" clip-rule="evenodd" d="M101.407 16.7571C101.407 15.0687 101.069 13.7495 100.394 12.7962C99.7862 11.8875 98.8852 11.4333 97.6929 11.4333C96.5907 11.4333 95.7456 11.9091 95.1612 12.8611C94.5988 13.7495 94.3178 15.0358 94.3178 16.7238C94.3178 18.3905 94.5767 19.646 95.0936 20.4898C95.6781 21.5284 96.5561 22.048 97.7263 22.048C98.3553 22.048 98.9181 21.9124 99.4147 21.6419C99.9096 21.3717 100.303 20.9873 100.596 20.4898C101.136 19.5824 101.407 18.3382 101.407 16.7571ZM105.424 16.6934C105.424 18.2299 105.21 19.5824 104.782 20.7513C104.287 22.1791 103.489 23.2947 102.386 24.0948C101.283 24.8962 99.9333 25.2953 98.3353 25.2953C96.7594 25.2953 95.4667 24.7226 94.4537 23.5753C94.4073 23.5103 94.3627 23.4887 94.3181 23.5103C94.2723 23.532 94.2506 23.5753 94.2506 23.6402V24.6472C94.2506 24.7559 94.2108 24.8477 94.132 24.923C94.0528 24.9996 93.9571 25.0364 93.845 25.0364H90.7387C90.6265 25.0364 90.5309 24.9996 90.4516 24.923C90.3724 24.8477 90.333 24.7559 90.333 24.6472V2.70061C90.333 2.59237 90.3724 2.50016 90.4516 2.42483C90.5309 2.34993 90.6252 2.3114 90.7387 2.3114H93.845C93.9571 2.3114 94.0528 2.34993 94.132 2.42483C94.2108 2.50146 94.2506 2.59367 94.2506 2.70061V9.74484C94.2506 9.80978 94.2723 9.85308 94.3181 9.87516C94.3627 9.8968 94.4073 9.88641 94.4537 9.84312C95.4208 8.73914 96.7032 8.18802 98.302 8.18802C99.9675 8.18802 101.346 8.58848 102.437 9.38897C103.528 10.1903 104.333 11.3043 104.85 12.7321C105.233 13.9443 105.424 15.2639 105.424 16.6934Z" fill="white"/>
<path fill-rule="evenodd" clip-rule="evenodd" d="M107.041 24.9471C106.962 24.8718 106.922 24.78 106.922 24.6713V2.726C106.922 2.61776 106.962 2.52598 107.041 2.45065C107.12 2.37532 107.215 2.33679 107.328 2.33679H110.434C110.546 2.33679 110.642 2.37532 110.721 2.45065C110.801 2.52728 110.84 2.61906 110.84 2.726V24.6713C110.84 24.78 110.801 24.8718 110.721 24.9471C110.642 25.0237 110.546 25.0605 110.434 25.0605H107.327C107.215 25.0605 107.119 25.0237 107.041 24.9471Z" fill="white"/>
<path fill-rule="evenodd" clip-rule="evenodd" d="M117.736 12.0085C117.185 12.4094 116.796 12.9658 116.571 13.6801C116.435 14.0489 116.346 14.5239 116.3 15.1083C116.254 15.2166 116.3 15.2703 116.435 15.2703H123.288C123.4 15.2703 123.457 15.2166 123.457 15.1083C123.411 14.5672 123.345 14.1563 123.254 13.874C123.051 13.0943 122.651 12.4895 122.056 12.0557C121.46 11.6232 120.711 11.4063 119.811 11.4063C118.979 11.4089 118.287 11.6089 117.736 12.0085ZM127.441 16.6677L127.408 17.6743C127.408 17.9349 127.272 18.0635 127.003 18.0635H116.437C116.325 18.0635 116.268 18.1185 116.268 18.2259C116.336 18.9402 116.437 19.4264 116.572 19.687C117.112 21.2451 118.429 22.0348 120.522 22.0564C122.052 22.0564 123.267 21.4503 124.168 20.2381C124.257 20.1078 124.371 20.0429 124.504 20.0429C124.594 20.0429 124.673 20.0749 124.74 20.1398L126.833 21.7949C127.036 21.9469 127.07 22.1192 126.934 22.3145C126.236 23.2665 125.308 24.0029 124.15 24.522C122.991 25.0415 121.702 25.3017 120.284 25.3017C118.53 25.3017 117.038 24.9229 115.812 24.1661C114.585 23.4093 113.691 22.3478 113.128 20.9845C112.61 19.8156 112.352 18.1925 112.352 16.1149C112.352 14.8607 112.488 13.8424 112.756 13.064C113.207 11.5492 114.056 10.3534 115.305 9.47673C116.555 8.60005 118.056 8.16235 119.811 8.16235C124.244 8.16235 126.741 10.3915 127.304 14.8503C127.395 15.3915 127.441 15.9976 127.441 16.6677Z" fill="white"/>
<path fill-rule="evenodd" clip-rule="evenodd" d="M28.0152 17.5035L22.5508 23.6287L27.3351 14.5392C27.4793 14.2661 27.5598 13.9686 27.5814 13.6686L28.3395 15.9212C28.5231 16.4675 28.3992 17.0736 28.0152 17.5035ZM19.751 26.7669C19.3761 27.1877 18.7977 27.383 18.244 27.2748L10.6374 25.7907L20.4567 25.2928C20.7286 25.2789 20.9901 25.2136 21.2325 25.1066L19.751 26.7669ZM4.84466 23.8317L2.27738 16.2082L7.73405 24.817C7.85138 25.0019 7.99554 25.1664 8.15746 25.3058L6.05947 24.8958C5.49449 24.7863 5.02996 24.378 4.84466 23.8317ZM1.26512 10.6571L6.73088 4.53329L1.94655 13.6227C1.80239 13.8959 1.72229 14.1933 1.70021 14.4933L0.942583 12.2408C0.757288 11.6936 0.882406 11.087 1.26512 10.6571ZM9.53062 1.39502C9.838 1.05083 10.2796 0.857747 10.7329 0.857747C10.8333 0.857747 10.9355 0.868137 11.0377 0.887186L18.6447 2.37128L8.82494 2.86915C8.55306 2.883 8.29156 2.94838 8.04912 3.05531L9.53062 1.39502ZM24.2698 9.24189L26.5219 12.7958C26.7786 13.2006 26.799 13.7162 26.5756 14.1396L24.3014 18.4594V9.5891C24.3014 9.47177 24.2901 9.35575 24.2698 9.24189ZM5.01205 18.9188L2.7595 15.3649C2.50321 14.9601 2.48243 14.4449 2.70582 14.021L4.97871 9.70124V18.5716C4.97871 18.6902 4.98997 18.8054 5.01205 18.9188ZM23.4443 18.5729C23.4443 18.9457 23.2438 19.2937 22.9209 19.4816L15.1662 23.9698C14.8419 24.1573 14.4384 24.1573 14.1146 23.9698L6.36079 19.4803C6.03783 19.2929 5.83781 18.9457 5.83781 18.5716V9.58783C5.83781 9.21508 6.03783 8.867 6.36079 8.67911L14.1159 4.19134C14.2778 4.09653 14.4592 4.05063 14.6415 4.05063C14.8229 4.05063 15.0051 4.09782 15.1675 4.19134L22.9209 8.68041C23.2438 8.867 23.4443 9.21508 23.4443 9.58913V18.5729ZM20.8217 3.80344L23.5093 8.04227C23.4582 8.00548 23.4059 7.97084 23.3513 7.93924L15.5962 3.45103C15.5603 3.43068 15.5235 3.41034 15.4862 3.39215L19.6199 3.18305C20.1008 3.15491 20.5628 3.39475 20.8217 3.80344ZM8.86694 3.72679L13.6231 3.48565L5.9308 7.93922C5.91911 7.94528 5.90785 7.95307 5.89616 7.96087L7.74781 4.44243C7.96731 4.02379 8.39634 3.75104 8.86694 3.72679ZM8.46006 24.359L5.77242 20.1197C5.8235 20.1565 5.87589 20.1911 5.93087 20.2227L13.6855 24.7122C13.7215 24.7326 13.7583 24.7529 13.7955 24.7711L9.66231 24.9802C9.17829 25.0032 8.71765 24.7659 8.46006 24.359ZM20.4134 24.4339L15.6573 24.6755L23.3513 20.2215C23.3626 20.2154 23.3743 20.2076 23.3855 20.1999L21.5339 23.7183C21.3144 24.1369 20.8845 24.411 20.4134 24.4339ZM24.4356 4.32899L27.0033 11.9525L21.5467 3.34363C21.4289 3.15747 21.2847 2.99426 21.1228 2.85485L23.2221 3.26484C23.7862 3.37437 24.2521 3.78263 24.4356 4.32899ZM29.152 15.6467L25.2487 4.0545C24.9664 3.21764 24.2521 2.59076 23.3841 2.42235L11.1996 0.045118C10.3498 -0.120695 9.46445 0.177595 8.88865 0.82353L0.62485 10.0857C0.0364959 10.745 -0.153561 11.6754 0.128277 12.5127L4.03202 24.1049C4.31386 24.9435 5.02863 25.5686 5.89623 25.737L18.0807 28.1143C18.2365 28.145 18.3919 28.1589 18.5478 28.1589C19.2431 28.1589 19.9206 27.8632 20.3917 27.3358L28.6559 18.0741C29.2442 17.4156 29.4343 16.4853 29.152 15.6467Z" fill="white"/>
<path d="M0.116721 51.8178H2.96473L7.47017 64.9373L12.0223 51.8178H14.8003L9.08093 68.1588H5.85942L0.116721 51.8178ZM26.4057 56.2065V68.1588H24.188L23.9078 66.6414C22.9974 67.762 21.7602 68.2989 20.2194 68.2989C18.8188 68.2989 17.6749 67.8787 16.8112 66.9916C15.9241 66.1279 15.5039 64.7272 15.5039 62.7896V56.2065H18.0251V62.5328C18.0251 63.7001 18.2585 64.5871 18.7254 65.1941C19.1923 65.801 19.8693 66.1045 20.803 66.1045C21.7602 66.1045 22.5072 65.7544 23.0674 65.054C23.6044 64.3537 23.8845 63.3732 23.8845 62.136V56.2065H26.4057ZM28.8902 51.8178H31.4114V68.1588H28.8902V51.8178ZM43.6407 57.3737C44.5278 58.2608 44.9947 59.6615 44.9947 61.5757V68.1588H42.4501V61.7158C42.4501 60.5953 42.1934 59.7315 41.7265 59.1246C41.2362 58.541 40.5359 58.2375 39.6021 58.2375C38.5983 58.2375 37.8046 58.5877 37.2444 59.288C36.6841 59.9883 36.404 60.9221 36.404 62.136V68.1588H33.8828V56.2065H36.0771L36.3573 57.7706C37.2444 56.6501 38.5283 56.0665 40.1857 56.0665C41.5864 56.0665 42.7536 56.51 43.6407 57.3737ZM47.5676 58.9845C48.0579 58.0507 48.7349 57.3504 49.6219 56.8368C50.509 56.3233 51.5128 56.0665 52.6567 56.0665C53.8006 56.0665 54.8044 56.2999 55.6915 56.7668C56.5785 57.2337 57.2555 57.9107 57.7691 58.7511C58.2827 59.6148 58.5395 60.6186 58.5628 61.7625C58.5628 62.0893 58.5395 62.3928 58.4928 62.7196H49.4819V62.8597C49.5286 63.9102 49.8554 64.7272 50.4623 65.3342C51.0459 65.9411 51.8397 66.2446 52.8201 66.2446C53.5905 66.2446 54.2441 66.0812 54.781 65.7077C55.2946 65.3342 55.6448 64.8206 55.8315 64.1436H58.3527C58.1193 65.3575 57.5357 66.3613 56.5785 67.1317C55.6214 67.9254 54.4309 68.2989 53.0069 68.2989C51.7463 68.2989 50.6724 68.0654 49.7387 67.5519C48.8049 67.0383 48.1046 66.338 47.591 65.4042C47.0774 64.4938 46.844 63.4199 46.844 62.206C46.844 60.9921 47.0774 59.9183 47.5676 58.9845ZM55.9949 60.8754C55.8782 60.0117 55.528 59.3347 54.9444 58.8444C54.3608 58.3542 53.6372 58.0974 52.7501 58.0974C51.9097 58.0974 51.2094 58.3542 50.6024 58.8678C49.9955 59.3814 49.6686 60.035 49.5753 60.8754H55.9949ZM67.2075 56.2065V58.5643H66.087C65.0365 58.5643 64.2895 58.9145 63.8226 59.5915C63.3557 60.2684 63.1222 61.1322 63.1222 62.1593V68.1588H60.6011V56.2065H62.8421L63.1222 58.004C63.4491 57.4438 63.8926 57.0236 64.4529 56.6968C64.9898 56.3699 65.7135 56.2065 66.6472 56.2065H67.2075ZM79.7908 65.9644V68.1588H78.4602C77.6665 68.1588 77.1062 67.9954 76.7794 67.6686C76.4292 67.3418 76.2658 66.8749 76.2658 66.2446C75.3554 67.6219 74.0481 68.2989 72.3206 68.2989C70.9667 68.2989 69.8928 67.9954 69.0991 67.3651C68.2821 66.7582 67.8852 65.8944 67.8852 64.7972C67.8852 63.5833 68.3054 62.6262 69.1925 61.9726C70.0562 61.3189 71.3168 60.9688 72.9976 60.9688H76.009V60.2451C76.009 59.5915 75.7756 59.0545 75.3087 58.681C74.8418 58.3075 74.1882 58.0974 73.3711 58.0974C72.6241 58.0974 72.0171 58.2608 71.5503 58.5877C71.0834 58.9145 70.8032 59.3347 70.7099 59.8482H68.2354C68.3521 58.6577 68.889 57.7239 69.8228 57.0703C70.7566 56.4166 71.9705 56.0665 73.4878 56.0665C75.0752 56.0665 76.3125 56.44 77.1996 57.187C78.0633 57.934 78.5069 59.0078 78.5069 60.4085V65.1241C78.5069 65.6843 78.7636 65.9644 79.3006 65.9644H79.7908ZM76.009 62.8363H72.8809C72.0872 62.8363 71.5036 62.9997 71.0834 63.3032C70.6632 63.6067 70.4531 64.0502 70.4531 64.6338C70.4531 65.1474 70.6398 65.5676 71.0367 65.8711C71.4335 66.1979 71.9705 66.338 72.6708 66.338C73.6979 66.338 74.515 66.0578 75.0986 65.4976C75.6822 64.9373 75.9857 64.1903 76.009 63.2565V62.8363ZM90.4785 56.8135C91.3189 57.3037 91.9958 58.004 92.4861 58.9145C92.953 59.8482 93.2098 60.9221 93.2098 62.1827C93.2098 63.3966 92.953 64.4471 92.4861 65.3808C91.9958 66.3146 91.3189 67.0149 90.4785 67.5285C89.6147 68.0421 88.6343 68.2989 87.5604 68.2989C86.6734 68.2989 85.903 68.1355 85.2493 67.8086C84.5957 67.4818 84.0588 67.0149 83.6619 66.4313L83.3585 68.1588H81.1641V51.8178H83.6853V57.9807C84.6191 56.7201 85.9263 56.0665 87.5604 56.0665C88.6343 56.0665 89.6147 56.3233 90.4785 56.8135ZM89.6614 65.0774C90.3151 64.3303 90.6419 63.3732 90.6419 62.1827C90.6419 61.0155 90.3151 60.0817 89.6614 59.3347C89.0078 58.5877 88.1674 58.2141 87.1402 58.2141C86.0897 58.2141 85.2493 58.5877 84.6191 59.3113C83.9654 60.0583 83.6619 60.9921 83.6619 62.1593C83.6619 63.3499 83.9654 64.307 84.6191 65.054C85.2493 65.801 86.0897 66.1745 87.1402 66.1745C88.1674 66.1745 89.0078 65.8244 89.6614 65.0774ZM97.5877 51.8645C97.8679 52.1446 98.0313 52.5181 98.0313 52.9383C98.0313 53.3819 97.8679 53.7554 97.5877 54.0355C97.2842 54.3156 96.9107 54.4557 96.4905 54.4557C96.047 54.4557 95.6735 54.3156 95.3934 54.0355C95.0899 53.7554 94.9498 53.3819 94.9498 52.9383C94.9498 52.5181 95.0899 52.1446 95.3934 51.8645C95.6735 51.5844 96.047 51.421 96.4905 51.421C96.9107 51.421 97.2842 51.5844 97.5877 51.8645ZM95.2299 56.2065H97.7511V68.1588H95.2299V56.2065ZM100.223 51.8178H102.744V68.1588H100.223V51.8178ZM107.573 51.8645C107.853 52.1446 108.016 52.5181 108.016 52.9383C108.016 53.3819 107.853 53.7554 107.573 54.0355C107.269 54.3156 106.896 54.4557 106.476 54.4557C106.032 54.4557 105.659 54.3156 105.379 54.0355C105.075 53.7554 104.935 53.3819 104.935 52.9383C104.935 52.5181 105.075 52.1446 105.379 51.8645C105.659 51.5844 106.032 51.421 106.476 51.421C106.896 51.421 107.269 51.5844 107.573 51.8645ZM105.215 56.2065H107.736V68.1588H105.215V56.2065ZM110.978 58.4242H108.9V56.2065H110.978V52.8683H113.523V56.2065H116.394V58.4242H113.523V64.6572C113.523 65.1241 113.616 65.4742 113.803 65.661C113.989 65.8477 114.293 65.9411 114.76 65.9411H116.674V68.1588H114.246C113.102 68.1588 112.262 67.902 111.748 67.3651C111.235 66.8515 110.978 66.0345 110.978 64.914V58.4242ZM119.521 56.2065L122.859 65.4275L126.104 56.2065H128.789L123.373 70.0264C123.093 70.75 122.836 71.3103 122.603 71.6838C122.369 72.0573 122.066 72.3608 121.739 72.5475C121.389 72.7343 120.922 72.8277 120.362 72.8277H117.654V70.61H119.428C119.895 70.61 120.245 70.5399 120.432 70.3999C120.618 70.2598 120.805 69.9096 121.015 69.3961L121.505 68.2522L116.837 56.2065H119.521ZM136.294 51.8178H139.772L145.001 64.6805L150.137 51.8178H153.545V68.1588H150.954V56.1365L146.052 68.1588H143.787L138.885 56.1365V68.1588H136.294V51.8178ZM167.719 65.9644V68.1588H166.389C165.595 68.1588 165.035 67.9954 164.708 67.6686C164.358 67.3418 164.194 66.8749 164.194 66.2446C163.284 67.6219 161.977 68.2989 160.249 68.2989C158.895 68.2989 157.821 67.9954 157.028 67.3651C156.211 66.7582 155.814 65.8944 155.814 64.7972C155.814 63.5833 156.234 62.6262 157.121 61.9726C157.985 61.3189 159.245 60.9688 160.926 60.9688H163.938V60.2451C163.938 59.5915 163.704 59.0545 163.237 58.681C162.77 58.3075 162.117 58.0974 161.3 58.0974C160.553 58.0974 159.946 58.2608 159.479 58.5877C159.012 58.9145 158.732 59.3347 158.639 59.8482H156.164C156.281 58.6577 156.818 57.7239 157.751 57.0703C158.685 56.4166 159.899 56.0665 161.416 56.0665C163.004 56.0665 164.241 56.44 165.128 57.187C165.992 57.934 166.436 59.0078 166.436 60.4085V65.1241C166.436 65.6843 166.692 65.9644 167.229 65.9644H167.719ZM163.938 62.8363H160.81C160.016 62.8363 159.432 62.9997 159.012 63.3032C158.592 63.6067 158.382 64.0502 158.382 64.6338C158.382 65.1474 158.568 65.5676 158.965 65.8711C159.362 66.1979 159.899 66.338 160.599 66.338C161.627 66.338 162.444 66.0578 163.027 65.4976C163.611 64.9373 163.914 64.1903 163.938 63.2565V62.8363ZM178.851 57.3737C179.738 58.2608 180.205 59.6615 180.205 61.5757V68.1588H177.66V61.7158C177.66 60.5953 177.403 59.7315 176.936 59.1246C176.446 58.541 175.746 58.2375 174.812 58.2375C173.808 58.2375 173.015 58.5877 172.454 59.288C171.894 59.9883 171.614 60.9221 171.614 62.136V68.1588H169.093V56.2065H171.287L171.567 57.7706C172.454 56.6501 173.738 56.0665 175.396 56.0665C176.796 56.0665 177.964 56.51 178.851 57.3737ZM193.936 65.9644V68.1588H192.606C191.812 68.1588 191.252 67.9954 190.925 67.6686C190.575 67.3418 190.411 66.8749 190.411 66.2446C189.501 67.6219 188.193 68.2989 186.466 68.2989C185.112 68.2989 184.038 67.9954 183.245 67.3651C182.427 66.7582 182.031 65.8944 182.031 64.7972C182.031 63.5833 182.451 62.6262 183.338 61.9726C184.202 61.3189 185.462 60.9688 187.143 60.9688H190.154V60.2451C190.154 59.5915 189.921 59.0545 189.454 58.681C188.987 58.3075 188.334 58.0974 187.517 58.0974C186.769 58.0974 186.163 58.2608 185.696 58.5877C185.229 58.9145 184.949 59.3347 184.855 59.8482H182.381C182.497 58.6577 183.034 57.7239 183.968 57.0703C184.902 56.4166 186.116 56.0665 187.633 56.0665C189.221 56.0665 190.458 56.44 191.345 57.187C192.209 57.934 192.652 59.0078 192.652 60.4085V65.1241C192.652 65.6843 192.909 65.9644 193.446 65.9644H193.936ZM190.154 62.8363H187.026C186.233 62.8363 185.649 62.9997 185.229 63.3032C184.809 63.6067 184.598 64.0502 184.598 64.6338C184.598 65.1474 184.785 65.5676 185.182 65.8711C185.579 66.1979 186.116 66.338 186.816 66.338C187.843 66.338 188.66 66.0578 189.244 65.4976C189.828 64.9373 190.131 64.1903 190.154 63.2565V62.8363ZM206.912 56.2065V67.6686C206.912 69.3494 206.398 70.6567 205.418 71.5904C204.414 72.5242 202.873 72.9677 200.795 72.9677C199.161 72.9677 197.854 72.6176 196.85 71.8939C195.823 71.1702 195.263 70.1431 195.169 68.8125H197.737C197.877 69.4894 198.251 70.003 198.811 70.3765C199.371 70.75 200.095 70.9134 200.982 70.9134C203.27 70.9134 204.414 69.8163 204.414 67.5752V66.2446C203.527 67.5519 202.243 68.2055 200.515 68.2055C199.418 68.2055 198.438 67.9721 197.597 67.4818C196.733 66.9916 196.057 66.2913 195.59 65.3808C195.099 64.4704 194.866 63.3966 194.866 62.136C194.866 60.9454 195.099 59.8949 195.59 58.9612C196.08 58.0507 196.757 57.3504 197.621 56.8368C198.461 56.3233 199.441 56.0665 200.515 56.0665C201.402 56.0665 202.196 56.2532 202.85 56.6034C203.503 56.9769 204.017 57.4671 204.437 58.0741L204.717 56.2065H206.912ZM203.457 65.0073C204.087 64.2837 204.414 63.3499 204.414 62.1827C204.414 61.0155 204.087 60.0583 203.457 59.3113C202.803 58.5643 201.963 58.1908 200.935 58.1908C199.885 58.1908 199.045 58.5643 198.414 59.288C197.761 60.035 197.457 60.9688 197.457 62.136C197.457 63.3032 197.761 64.2603 198.414 64.984C199.045 65.731 199.885 66.0812 200.935 66.0812C201.963 66.0812 202.803 65.731 203.457 65.0073ZM209.655 58.9845C210.146 58.0507 210.823 57.3504 211.71 56.8368C212.597 56.3233 213.601 56.0665 214.745 56.0665C215.888 56.0665 216.892 56.2999 217.779 56.7668C218.666 57.2337 219.343 57.9107 219.857 58.7511C220.371 59.6148 220.627 60.6186 220.651 61.7625C220.651 62.0893 220.627 62.3928 220.581 62.7196H211.57V62.8597C211.616 63.9102 211.943 64.7272 212.55 65.3342C213.134 65.9411 213.927 66.2446 214.908 66.2446C215.678 66.2446 216.332 66.0812 216.869 65.7077C217.382 65.3342 217.733 64.8206 217.919 64.1436H220.441C220.207 65.3575 219.623 66.3613 218.666 67.1317C217.709 67.9254 216.519 68.2989 215.095 68.2989C213.834 68.2989 212.76 68.0654 211.826 67.5519C210.893 67.0383 210.192 66.338 209.679 65.4042C209.165 64.4938 208.932 63.4199 208.932 62.206C208.932 60.9921 209.165 59.9183 209.655 58.9845ZM218.083 60.8754C217.966 60.0117 217.616 59.3347 217.032 58.8444C216.449 58.3542 215.725 58.0974 214.838 58.0974C213.998 58.0974 213.297 58.3542 212.69 58.8678C212.083 59.3814 211.756 60.035 211.663 60.8754H218.083ZM239.684 57.3504C240.501 58.1908 240.921 59.5448 240.921 61.4123V68.1588H238.4V61.4357C238.4 60.4085 238.189 59.6148 237.769 59.0545C237.349 58.5176 236.719 58.2375 235.902 58.2375C235.015 58.2375 234.338 58.5643 233.824 59.1713C233.311 59.7782 233.077 60.6186 233.077 61.6924V68.1588H230.533V61.4357C230.533 60.3852 230.299 59.5915 229.879 59.0545C229.459 58.5176 228.828 58.2375 228.011 58.2375C227.148 58.2375 226.471 58.5643 225.957 59.1946C225.444 59.8482 225.21 60.6886 225.21 61.7625V68.1588H222.689V56.2065H224.883L225.163 57.7706C226.004 56.6501 227.171 56.0898 228.665 56.0665C229.505 56.0665 230.229 56.2532 230.883 56.6034C231.513 56.9769 232.003 57.5138 232.353 58.2375C232.774 57.5605 233.311 57.0236 234.011 56.6501C234.688 56.2766 235.505 56.0665 236.485 56.0665C237.793 56.0665 238.843 56.51 239.684 57.3504ZM243.486 58.9845C243.977 58.0507 244.654 57.3504 245.541 56.8368C246.428 56.3233 247.432 56.0665 248.576 56.0665C249.719 56.0665 250.723 56.2999 251.61 56.7668C252.497 57.2337 253.174 57.9107 253.688 58.7511C254.201 59.6148 254.458 60.6186 254.482 61.7625C254.482 62.0893 254.458 62.3928 254.412 62.7196H245.401V62.8597C245.447 63.9102 245.774 64.7272 246.381 65.3342C246.965 65.9411 247.758 66.2446 248.739 66.2446C249.509 66.2446 250.163 66.0812 250.7 65.7077C251.213 65.3342 251.564 64.8206 251.75 64.1436H254.272C254.038 65.3575 253.454 66.3613 252.497 67.1317C251.54 67.9254 250.35 68.2989 248.926 68.2989C247.665 68.2989 246.591 68.0654 245.657 67.5519C244.724 67.0383 244.023 66.338 243.51 65.4042C242.996 64.4938 242.763 63.4199 242.763 62.206C242.763 60.9921 242.996 59.9183 243.486 58.9845ZM251.914 60.8754C251.797 60.0117 251.447 59.3347 250.863 58.8444C250.28 58.3542 249.556 58.0974 248.669 58.0974C247.828 58.0974 247.128 58.3542 246.521 58.8678C245.914 59.3814 245.587 60.035 245.494 60.8754H251.914ZM266.278 57.3737C267.165 58.2608 267.632 59.6615 267.632 61.5757V68.1588H265.087V61.7158C265.087 60.5953 264.83 59.7315 264.364 59.1246C263.873 58.541 263.173 58.2375 262.239 58.2375C261.235 58.2375 260.442 58.5877 259.881 59.288C259.321 59.9883 259.041 60.9221 259.041 62.136V68.1588H256.52V56.2065H258.714L258.994 57.7706C259.881 56.6501 261.165 56.0665 262.823 56.0665C264.223 56.0665 265.391 56.51 266.278 57.3737ZM270.695 58.4242H268.617V56.2065H270.695V52.8683H273.239V56.2065H276.111V58.4242H273.239V64.6572C273.239 65.1241 273.333 65.4742 273.52 65.661C273.706 65.8477 274.01 65.9411 274.477 65.9411H276.391V68.1588H273.963C272.819 68.1588 271.979 67.902 271.465 67.3651C270.952 66.8515 270.695 66.0345 270.695 64.914V58.4242Z" fill="white"/>
</svg>
