<svg width="382" height="30" viewBox="0 0 382 30" fill="none" xmlns="http://www.w3.org/2000/svg">
<path d="M128.319 7.9963C128.508 8.10246 128.656 8.24698 128.764 8.42988C128.871 8.6115 128.926 8.81102 128.926 9.02717C128.926 9.24332 128.872 9.44157 128.764 9.62318C128.656 9.80352 128.507 9.94677 128.319 10.0516C128.129 10.1565 127.921 10.209 127.692 10.209C127.469 10.209 127.263 10.1565 127.077 10.0516C126.889 9.94677 126.742 9.80352 126.633 9.62318C126.524 9.44284 126.47 9.2446 126.47 9.02717C126.47 8.81102 126.524 8.6115 126.633 8.42988C126.74 8.24826 126.889 8.10374 127.077 7.9963C127.263 7.89014 127.469 7.83643 127.692 7.83643C127.921 7.83643 128.129 7.88886 128.319 7.9963ZM128.192 9.85852C128.339 9.77666 128.454 9.66283 128.536 9.5183C128.619 9.3725 128.66 9.21007 128.66 9.02717C128.66 8.84555 128.619 8.68056 128.536 8.53348C128.454 8.38639 128.339 8.27128 128.192 8.18815C128.045 8.10501 127.877 8.06281 127.691 8.06281C127.509 8.06281 127.347 8.10501 127.201 8.18815C127.055 8.27128 126.941 8.38639 126.859 8.53348C126.776 8.68056 126.735 8.84427 126.735 9.02717C126.735 9.21007 126.776 9.3725 126.859 9.5183C126.941 9.66283 127.055 9.77666 127.201 9.85852C127.347 9.94037 127.509 9.9813 127.691 9.9813C127.879 9.9813 128.045 9.94037 128.192 9.85852ZM128.132 8.98241C128.073 9.04252 127.998 9.086 127.904 9.11414L128.262 9.64748H127.937L127.642 9.15635H127.526V9.64748H127.249V8.36849H127.627C128.021 8.36849 128.218 8.49767 128.218 8.7573C128.219 8.84811 128.191 8.92229 128.132 8.98241ZM127.527 8.95299H127.673C127.848 8.95299 127.935 8.88776 127.935 8.75858C127.935 8.69335 127.913 8.64731 127.87 8.61789C127.826 8.58848 127.757 8.57441 127.664 8.57441H127.528V8.95299H127.527Z" fill="#041E42"/>
<path d="M41.4184 11.8524C41.3391 11.9292 41.2432 11.9663 41.1306 11.9663H37.6799C37.5673 11.9663 37.5111 12.02 37.5111 12.1287V19.9702C37.5111 20.7952 37.6978 21.3912 38.0687 21.7595C38.4409 22.1292 39.0331 22.3121 39.8452 22.3121H40.8608C40.9733 22.3121 41.0692 22.3504 41.1485 22.4259C41.2278 22.5026 41.2675 22.5947 41.2675 22.7022V25.1425C41.2675 25.3817 41.1319 25.5223 40.862 25.5658L39.1021 25.5978C37.3205 25.5978 35.9891 25.3049 35.1104 24.7191C34.2317 24.1333 33.779 23.027 33.7572 21.4001V12.1274C33.7572 12.0187 33.7009 11.965 33.5884 11.965H31.6597C31.5471 11.965 31.4512 11.9279 31.3719 11.8512C31.2926 11.7757 31.2529 11.6836 31.2529 11.5749V9.297C31.2529 9.18829 31.2926 9.0962 31.3719 9.02074C31.4512 8.94528 31.5458 8.90691 31.6597 8.90691H33.5884C33.7009 8.90691 33.7572 8.85319 33.7572 8.74448V4.93819C33.7572 4.82947 33.7969 4.73739 33.8762 4.66193C33.9555 4.58647 34.0501 4.5481 34.1639 4.5481H37.1069C37.2195 4.5481 37.3154 4.58647 37.3947 4.66193C37.474 4.73867 37.5136 4.83075 37.5136 4.93819V8.74448C37.5136 8.85319 37.5699 8.90691 37.6825 8.90691H41.1332C41.2457 8.90691 41.3417 8.94528 41.421 9.02074C41.5003 9.09748 41.5399 9.18957 41.5399 9.297V11.5749C41.5361 11.6849 41.4964 11.777 41.4184 11.8524Z" fill="#041E42"/>
<path d="M56.9367 17.1732L56.9035 18.1823C56.9035 18.4432 56.7679 18.5724 56.4981 18.5724H45.908C45.7954 18.5724 45.7391 18.6274 45.7391 18.7348C45.8069 19.4511 45.908 19.9384 46.0435 20.1993C46.5846 21.7609 47.9045 22.5526 50.002 22.5744C51.5356 22.5744 52.7532 21.9669 53.6561 20.7518C53.7457 20.6214 53.8595 20.5561 53.9951 20.5561C54.0846 20.5561 54.1639 20.5881 54.2317 20.6533L56.3292 22.3122C56.5326 22.4644 56.5658 22.6371 56.4303 22.8327C55.7307 23.7869 54.8008 24.5249 53.6395 25.0454C52.4782 25.566 51.1864 25.8269 49.7654 25.8269C48.0055 25.8269 46.5117 25.447 45.2825 24.6886C44.0534 23.9301 43.1568 22.866 42.5928 21.5C42.0735 20.3285 41.8152 18.7016 41.8152 16.6194C41.8152 15.3621 41.9508 14.3415 42.2206 13.5613C42.6721 12.0431 43.5226 10.8447 44.7748 9.96605C46.0269 9.08738 47.5323 8.64868 49.2909 8.64868C53.7341 8.64868 56.2371 10.8831 56.8012 15.3519C56.892 15.8929 56.9367 16.5004 56.9367 17.1732ZM47.21 12.5036C46.6575 12.9052 46.2674 13.4628 46.0423 14.1791C45.9067 14.5487 45.8159 15.0245 45.7711 15.6103C45.7251 15.719 45.7711 15.7727 45.9067 15.7727H52.7749C52.8874 15.7727 52.9437 15.719 52.9437 15.6103C52.8977 15.068 52.8312 14.6561 52.7404 14.3735C52.537 13.592 52.1367 12.9858 51.5394 12.5509C50.9421 12.1173 50.1913 11.8999 49.2896 11.8999C48.4557 11.9012 47.7625 12.102 47.21 12.5036Z" fill="#041E42"/>
<path d="M71.0925 10.2089C72.186 11.25 72.7335 12.6709 72.7335 14.4718V25.1437C72.7335 25.2524 72.6938 25.3445 72.6145 25.42C72.5352 25.4967 72.4393 25.5338 72.3267 25.5338H69.2137C69.1011 25.5338 69.0052 25.4967 68.9259 25.42C68.8466 25.3445 68.8069 25.2524 68.8069 25.1437V15.252C68.8069 14.2543 68.5141 13.446 67.927 12.8283C67.3399 12.2105 66.5623 11.901 65.5928 11.901C64.6233 11.901 63.8393 12.2054 63.242 12.8116C62.6447 13.4192 62.3455 14.2224 62.3455 15.22V25.1437C62.3455 25.2524 62.3058 25.3445 62.2265 25.42C62.1472 25.4967 62.0513 25.5338 61.9387 25.5338H58.8257C58.7131 25.5338 58.6172 25.4967 58.5379 25.42C58.4586 25.3445 58.4189 25.2524 58.4189 25.1437V9.29823C58.4189 9.18951 58.4586 9.09742 58.5379 9.02196C58.6172 8.9465 58.7118 8.90813 58.8257 8.90813H61.9387C62.0513 8.90813 62.1472 8.9465 62.2265 9.02196C62.3058 9.0987 62.3455 9.19079 62.3455 9.29823V10.3393C62.3455 10.4046 62.3672 10.448 62.4132 10.4698C62.458 10.4915 62.4925 10.4698 62.5143 10.4046C63.439 9.233 64.8369 8.64722 66.7094 8.64722C68.5371 8.64722 69.9977 9.16777 71.0925 10.2089Z" fill="#041E42"/>
<path d="M85.599 9.36351C86.6811 9.84058 87.5162 10.4967 88.102 11.3319C88.6878 12.1671 88.982 13.1161 88.982 14.1789V25.1438C88.982 25.2525 88.9423 25.3446 88.863 25.42C88.7837 25.4968 88.6878 25.5339 88.5752 25.5339H85.4622C85.3496 25.5339 85.2537 25.4968 85.1744 25.42C85.0951 25.3446 85.0555 25.2525 85.0555 25.1438V24.1027C85.0555 24.0374 85.0324 24.0003 84.9877 23.9888C84.9416 23.9786 84.8969 23.9939 84.8521 24.0374C83.747 25.209 82.1457 25.7948 80.0482 25.7948C78.3561 25.7948 76.9633 25.3829 75.8697 24.558C74.7749 23.7343 74.2288 22.5078 74.2288 20.8809C74.2288 19.1888 74.8427 17.8714 76.0731 16.9275C77.3022 15.9836 79.0339 15.5116 81.2658 15.5116H84.8854C84.9979 15.5116 85.0542 15.4579 85.0542 15.3492V14.5677C85.0542 13.7223 84.7945 13.0662 84.2765 12.5994C83.7573 12.1325 82.9796 11.8998 81.9424 11.8998C81.0855 11.8998 80.391 12.0456 79.8615 12.3385C79.3307 12.6313 78.9981 13.0381 78.8638 13.5586C78.7961 13.8195 78.6375 13.9282 78.3906 13.8835L75.1087 13.4934C74.9962 13.4716 74.9002 13.4346 74.8209 13.3796C74.7416 13.3258 74.7135 13.2555 74.7365 13.1685C74.9169 11.846 75.6548 10.7602 76.953 9.91476C78.2499 9.06934 79.8794 8.646 81.8413 8.646C83.2649 8.64728 84.517 8.88645 85.599 9.36351ZM83.7458 21.9552C84.5349 21.3912 84.9301 20.675 84.9301 19.8078V18.2781C84.9301 18.1694 84.8738 18.1157 84.7613 18.1157H81.9194C80.7235 18.1157 79.7822 18.3331 79.0941 18.7667C78.406 19.2003 78.0619 19.8193 78.0619 20.6212C78.0619 21.3157 78.3267 21.8529 78.8574 22.2315C79.3869 22.6114 80.0699 22.8006 80.9038 22.8006C82.0089 22.8019 82.9566 22.5205 83.7458 21.9552Z" fill="#041E42"/>
<path d="M105.662 17.1733C105.662 18.7132 105.448 20.069 105.019 21.2405C104.523 22.6717 103.722 23.7896 102.617 24.5915C101.512 25.3947 100.159 25.795 98.5577 25.795C96.9781 25.795 95.6825 25.2208 94.667 24.0709C94.6209 24.0057 94.5762 23.984 94.5314 24.0057C94.4854 24.0275 94.4636 24.0709 94.4636 24.1362V25.1453C94.4636 25.254 94.424 25.3461 94.3447 25.4216C94.2654 25.4983 94.1695 25.5354 94.0569 25.5354H90.9438C90.8313 25.5354 90.7354 25.4983 90.6561 25.4216C90.5768 25.3461 90.5371 25.254 90.5371 25.1453V3.14913C90.5371 3.04041 90.5768 2.94832 90.6561 2.87286C90.7354 2.7974 90.83 2.75903 90.9438 2.75903H94.0569C94.1695 2.75903 94.2654 2.7974 94.3447 2.87286C94.424 2.9496 94.4636 3.04169 94.4636 3.14913V10.2092C94.4636 10.2744 94.4854 10.3179 94.5314 10.3396C94.5762 10.3614 94.6209 10.3512 94.667 10.3077C95.6364 9.20133 96.9218 8.64881 98.5244 8.64881C100.194 8.64881 101.575 9.05041 102.668 9.85234C103.762 10.6556 104.569 11.7721 105.087 13.2033C105.471 14.4184 105.662 15.7408 105.662 17.1733ZM101.636 17.2373C101.636 15.5452 101.297 14.2227 100.621 13.2673C100.012 12.3566 99.1089 11.9013 97.9143 11.9013C96.8093 11.9013 95.9626 12.3784 95.3768 13.3325C94.8128 14.2227 94.5314 15.5119 94.5314 17.204C94.5314 18.8744 94.791 20.1329 95.309 20.9783C95.8948 22.0194 96.7748 22.54 97.9476 22.54C98.5781 22.54 99.1422 22.4044 99.6397 22.1333C100.136 21.8621 100.53 21.4771 100.824 20.9783C101.365 20.069 101.636 18.8219 101.636 17.2373Z" fill="#041E42"/>
<path d="M107.283 25.4459C107.204 25.3704 107.164 25.2784 107.164 25.1696V3.17476C107.164 3.06605 107.204 2.97396 107.283 2.8985C107.362 2.82304 107.457 2.78467 107.571 2.78467H110.684C110.796 2.78467 110.892 2.82304 110.972 2.8985C111.051 2.97524 111.091 3.06733 111.091 3.17476V25.1696C111.091 25.2784 111.051 25.3704 110.972 25.4459C110.892 25.5226 110.796 25.5597 110.684 25.5597H107.57C107.457 25.5597 107.361 25.5226 107.283 25.4459Z" fill="#041E42"/>
<path d="M127.729 17.1476L127.696 18.1567C127.696 18.4176 127.56 18.5468 127.29 18.5468H116.7C116.588 18.5468 116.531 18.6018 116.531 18.7092C116.599 19.4254 116.7 19.9127 116.836 20.1737C117.377 21.7353 118.697 22.527 120.794 22.5488C122.328 22.5488 123.545 21.9412 124.448 20.7262C124.538 20.5957 124.652 20.5305 124.786 20.5305C124.876 20.5305 124.955 20.5625 125.023 20.6277L127.12 22.2866C127.324 22.4388 127.357 22.6114 127.221 22.8071C126.522 23.7612 125.592 24.4992 124.431 25.0198C123.269 25.5403 121.977 25.8012 120.556 25.8012C118.798 25.8012 117.303 25.4214 116.074 24.6629C114.844 23.9045 113.948 22.8404 113.384 21.4744C112.865 20.3028 112.606 18.676 112.606 16.5937C112.606 15.3365 112.742 14.3159 113.012 13.5357C113.463 12.0175 114.314 10.8191 115.566 9.94041C116.818 9.06174 118.323 8.62305 120.082 8.62305C124.525 8.62305 127.028 10.8575 127.592 15.3263C127.683 15.8686 127.729 16.4761 127.729 17.1476ZM118.002 12.4779C117.45 12.8795 117.06 13.4372 116.835 14.1534C116.699 14.5231 116.609 14.9988 116.563 15.5846C116.517 15.6933 116.563 15.7471 116.699 15.7471H123.567C123.68 15.7471 123.736 15.6933 123.736 15.5846C123.69 15.0423 123.623 14.6305 123.533 14.3478C123.329 13.5664 122.929 12.9601 122.332 12.5253C121.734 12.0917 120.984 11.8743 120.082 11.8743C119.248 11.8768 118.555 12.0776 118.002 12.4779Z" fill="#041E42"/>
<path d="M29.2182 16.1244L25.3057 4.50597C25.0231 3.66695 24.3068 3.03896 23.4371 2.87014L11.2252 0.487369C10.3734 0.3211 9.48581 0.620384 8.90898 1.26756L0.626201 10.5505C0.0365842 11.2117 -0.153986 12.1441 0.128672 12.9832L4.04112 24.6015C4.32378 25.4418 5.04002 26.0686 5.90973 26.2374L18.1216 28.6202C18.2776 28.6508 18.4337 28.6649 18.5897 28.6649C19.2868 28.6649 19.9659 28.3682 20.4378 27.84L28.7206 18.557C29.3102 17.8971 29.5008 16.9647 29.2182 16.1244ZM24.491 4.78096L27.0643 12.4217L21.5953 3.79357C21.4777 3.60684 21.3331 3.44313 21.1707 3.30372L23.2747 3.71427C23.84 3.82427 24.3068 4.23355 24.491 4.78096ZM20.4596 24.9315L15.6928 25.1733L23.4038 20.7096C23.4154 20.7032 23.4269 20.6955 23.4384 20.6878L21.5826 24.214C21.3626 24.6335 20.9315 24.9085 20.4596 24.9315ZM8.47924 24.8561L5.78567 20.6072C5.83683 20.6443 5.88927 20.6789 5.94427 20.7108L13.7167 25.2104C13.7525 25.2308 13.7896 25.2513 13.8267 25.2692L9.68405 25.4789C9.19931 25.502 8.73759 25.2641 8.47924 24.8561ZM8.88724 4.17727L13.6541 3.93554L5.94427 8.39923C5.93276 8.40563 5.92125 8.4133 5.90973 8.42098L7.76556 4.89479C7.98554 4.47528 8.41529 4.20157 8.88724 4.17727ZM20.8689 4.25401L23.5624 8.50283C23.5113 8.46574 23.4588 8.43121 23.4038 8.39923L15.6314 3.90101C15.5956 3.88054 15.5585 3.86008 15.5214 3.84217L19.6641 3.63242C20.1462 3.60428 20.6092 3.84473 20.8689 4.25401ZM23.4972 19.0571C23.4972 19.4306 23.2964 19.7797 22.9728 19.9677L15.2004 24.466C14.8755 24.654 14.4713 24.654 14.1465 24.466L6.37529 19.9665C6.0517 19.7785 5.8509 19.4306 5.8509 19.0558V10.0517C5.8509 9.67823 6.0517 9.32906 6.37529 9.14105L14.1477 4.64282C14.3102 4.54818 14.4918 4.50214 14.6747 4.50214C14.8563 4.50214 15.0392 4.54946 15.2016 4.64282L22.9728 9.14233C23.2964 9.32906 23.4972 9.67823 23.4972 10.053V19.0571ZM5.02339 19.4037L2.76596 15.8417C2.50888 15.4363 2.48842 14.9196 2.71224 14.4949L4.99014 10.1655V19.0558C4.99014 19.1748 5.00165 19.2899 5.02339 19.4037ZM24.3247 9.70509L26.5821 13.2671C26.8392 13.6725 26.8597 14.1892 26.6359 14.6139L24.3567 18.9433V10.053C24.3567 9.93531 24.3452 9.81892 24.3247 9.70509ZM9.55231 1.84055C9.86055 1.49522 10.3031 1.30209 10.7571 1.30209C10.8582 1.30209 10.9605 1.31232 11.0628 1.33151L18.6869 2.81898L8.84503 3.31779C8.5726 3.33185 8.31041 3.39708 8.0674 3.50452L9.55231 1.84055ZM1.26826 11.1235L6.7462 4.9856L1.95124 14.0959C1.80671 14.3696 1.72614 14.6676 1.7044 14.9682L0.944671 12.7107C0.759217 12.162 0.884558 11.5545 1.26826 11.1235ZM4.85584 24.3278L2.2825 16.6871L7.75149 25.3152C7.86916 25.5007 8.01368 25.6657 8.17612 25.8051L6.07345 25.3945C5.50685 25.2845 5.0413 24.8753 4.85584 24.3278ZM19.7958 27.2695C19.4198 27.6916 18.8404 27.8873 18.2853 27.7786L10.6612 26.2911L20.5031 25.7923C20.7755 25.7782 21.0377 25.713 21.2807 25.6056L19.7958 27.2695ZM28.0786 17.9853L22.6019 24.1245L27.3969 15.0142C27.5414 14.7405 27.622 14.4425 27.6437 14.1419L28.4034 16.3994C28.5876 16.9468 28.4635 17.5543 28.0786 17.9853Z" fill="#041E42"/>
<path d="M145.026 8.05347H147.466L151.326 19.2935L155.226 8.05347H157.606L152.706 22.0535H149.946L145.026 8.05347ZM167.549 11.8135V22.0535H165.649L165.409 20.7535C164.629 21.7135 163.569 22.1735 162.249 22.1735C161.049 22.1735 160.069 21.8135 159.329 21.0535C158.569 20.3135 158.209 19.1135 158.209 17.4535V11.8135H160.369V17.2335C160.369 18.2335 160.569 18.9935 160.969 19.5135C161.369 20.0335 161.949 20.2935 162.749 20.2935C163.569 20.2935 164.209 19.9935 164.689 19.3935C165.149 18.7935 165.389 17.9535 165.389 16.8935V11.8135H167.549ZM169.677 8.05347H171.837V22.0535H169.677V8.05347ZM182.315 12.8135C183.075 13.5735 183.475 14.7735 183.475 16.4135V22.0535H181.295V16.5335C181.295 15.5735 181.075 14.8335 180.675 14.3135C180.255 13.8135 179.655 13.5535 178.855 13.5535C177.995 13.5535 177.315 13.8535 176.835 14.4535C176.355 15.0535 176.115 15.8535 176.115 16.8935V22.0535H173.955V11.8135H175.835L176.075 13.1535C176.835 12.1935 177.935 11.6935 179.355 11.6935C180.555 11.6935 181.555 12.0735 182.315 12.8135ZM185.679 14.1935C186.099 13.3935 186.679 12.7935 187.439 12.3535C188.199 11.9135 189.059 11.6935 190.039 11.6935C191.019 11.6935 191.879 11.8935 192.639 12.2935C193.399 12.6935 193.979 13.2735 194.419 13.9935C194.859 14.7335 195.079 15.5935 195.099 16.5735C195.099 16.8535 195.079 17.1135 195.039 17.3935H187.319V17.5135C187.359 18.4135 187.639 19.1135 188.159 19.6335C188.659 20.1535 189.339 20.4135 190.179 20.4135C190.839 20.4135 191.399 20.2735 191.859 19.9535C192.299 19.6335 192.599 19.1935 192.759 18.6135H194.919C194.719 19.6535 194.219 20.5135 193.399 21.1735C192.579 21.8535 191.559 22.1735 190.339 22.1735C189.259 22.1735 188.339 21.9735 187.539 21.5335C186.739 21.0935 186.139 20.4935 185.699 19.6935C185.259 18.9135 185.059 17.9935 185.059 16.9535C185.059 15.9135 185.259 14.9935 185.679 14.1935ZM192.899 15.8135C192.799 15.0735 192.499 14.4935 191.999 14.0735C191.499 13.6535 190.879 13.4335 190.119 13.4335C189.399 13.4335 188.799 13.6535 188.279 14.0935C187.759 14.5335 187.479 15.0935 187.399 15.8135H192.899ZM202.505 11.8135V13.8335H201.545C200.645 13.8335 200.005 14.1335 199.605 14.7135C199.205 15.2935 199.005 16.0335 199.005 16.9135V22.0535H196.845V11.8135H198.765L199.005 13.3535C199.285 12.8735 199.665 12.5135 200.145 12.2335C200.605 11.9535 201.225 11.8135 202.025 11.8135H202.505ZM213.286 20.1735V22.0535H212.146C211.466 22.0535 210.986 21.9135 210.706 21.6335C210.406 21.3535 210.266 20.9535 210.266 20.4135C209.486 21.5935 208.366 22.1735 206.886 22.1735C205.726 22.1735 204.806 21.9135 204.126 21.3735C203.426 20.8535 203.086 20.1135 203.086 19.1735C203.086 18.1335 203.446 17.3135 204.206 16.7535C204.946 16.1935 206.026 15.8935 207.466 15.8935H210.046V15.2735C210.046 14.7135 209.846 14.2535 209.446 13.9335C209.046 13.6135 208.486 13.4335 207.786 13.4335C207.146 13.4335 206.626 13.5735 206.226 13.8535C205.826 14.1335 205.586 14.4935 205.506 14.9335H203.386C203.486 13.9135 203.946 13.1135 204.746 12.5535C205.546 11.9935 206.586 11.6935 207.886 11.6935C209.246 11.6935 210.306 12.0135 211.066 12.6535C211.806 13.2935 212.186 14.2135 212.186 15.4135V19.4535C212.186 19.9335 212.406 20.1735 212.866 20.1735H213.286ZM210.046 17.4935H207.366C206.686 17.4935 206.186 17.6335 205.826 17.8935C205.466 18.1535 205.286 18.5335 205.286 19.0335C205.286 19.4735 205.446 19.8335 205.786 20.0935C206.126 20.3735 206.586 20.4935 207.186 20.4935C208.066 20.4935 208.766 20.2535 209.266 19.7735C209.766 19.2935 210.026 18.6535 210.046 17.8535V17.4935ZM222.443 12.3335C223.163 12.7535 223.743 13.3535 224.163 14.1335C224.563 14.9335 224.783 15.8535 224.783 16.9335C224.783 17.9735 224.563 18.8735 224.163 19.6735C223.743 20.4735 223.163 21.0735 222.443 21.5135C221.703 21.9535 220.863 22.1735 219.943 22.1735C219.183 22.1735 218.523 22.0335 217.963 21.7535C217.403 21.4735 216.943 21.0735 216.603 20.5735L216.343 22.0535H214.463V8.05347H216.623V13.3335C217.423 12.2535 218.543 11.6935 219.943 11.6935C220.863 11.6935 221.703 11.9135 222.443 12.3335ZM221.743 19.4135C222.303 18.7735 222.583 17.9535 222.583 16.9335C222.583 15.9335 222.303 15.1335 221.743 14.4935C221.183 13.8535 220.463 13.5335 219.583 13.5335C218.683 13.5335 217.963 13.8535 217.423 14.4735C216.863 15.1135 216.603 15.9135 216.603 16.9135C216.603 17.9335 216.863 18.7535 217.423 19.3935C217.963 20.0335 218.683 20.3535 219.583 20.3535C220.463 20.3535 221.183 20.0535 221.743 19.4135ZM228.533 8.09347C228.773 8.33347 228.913 8.65347 228.913 9.01347C228.913 9.39347 228.773 9.71347 228.533 9.95347C228.273 10.1935 227.953 10.3135 227.593 10.3135C227.213 10.3135 226.893 10.1935 226.653 9.95347C226.393 9.71347 226.273 9.39347 226.273 9.01347C226.273 8.65347 226.393 8.33347 226.653 8.09347C226.893 7.85347 227.213 7.71347 227.593 7.71347C227.953 7.71347 228.273 7.85347 228.533 8.09347ZM226.513 11.8135H228.673V22.0535H226.513V11.8135ZM230.791 8.05347H232.951V22.0535H230.791V8.05347ZM237.088 8.09347C237.328 8.33347 237.468 8.65347 237.468 9.01347C237.468 9.39347 237.328 9.71347 237.088 9.95347C236.828 10.1935 236.508 10.3135 236.148 10.3135C235.768 10.3135 235.448 10.1935 235.208 9.95347C234.948 9.71347 234.828 9.39347 234.828 9.01347C234.828 8.65347 234.948 8.33347 235.208 8.09347C235.448 7.85347 235.768 7.71347 236.148 7.71347C236.508 7.71347 236.828 7.85347 237.088 8.09347ZM235.068 11.8135H237.228V22.0535H235.068V11.8135ZM240.005 13.7135H238.225V11.8135H240.005V8.95347H242.185V11.8135H244.645V13.7135H242.185V19.0535C242.185 19.4535 242.265 19.7535 242.425 19.9135C242.585 20.0735 242.845 20.1535 243.245 20.1535H244.885V22.0535H242.805C241.825 22.0535 241.105 21.8335 240.665 21.3735C240.225 20.9335 240.005 20.2335 240.005 19.2735V13.7135ZM247.325 11.8135L250.185 19.7135L252.965 11.8135H255.265L250.625 23.6535C250.385 24.2735 250.165 24.7535 249.965 25.0735C249.765 25.3935 249.505 25.6535 249.225 25.8135C248.925 25.9735 248.525 26.0535 248.045 26.0535H245.725V24.1535H247.245C247.645 24.1535 247.945 24.0935 248.105 23.9735C248.265 23.8535 248.425 23.5535 248.605 23.1135L249.025 22.1335L245.025 11.8135H247.325ZM261.694 8.05347H264.674L269.154 19.0735L273.554 8.05347H276.474V22.0535H274.254V11.7535L270.054 22.0535H268.114L263.914 11.7535V22.0535H261.694V8.05347ZM288.618 20.1735V22.0535H287.478C286.798 22.0535 286.318 21.9135 286.038 21.6335C285.738 21.3535 285.598 20.9535 285.598 20.4135C284.818 21.5935 283.698 22.1735 282.218 22.1735C281.058 22.1735 280.138 21.9135 279.458 21.3735C278.758 20.8535 278.418 20.1135 278.418 19.1735C278.418 18.1335 278.778 17.3135 279.538 16.7535C280.278 16.1935 281.358 15.8935 282.798 15.8935H285.378V15.2735C285.378 14.7135 285.178 14.2535 284.778 13.9335C284.378 13.6135 283.818 13.4335 283.118 13.4335C282.478 13.4335 281.958 13.5735 281.558 13.8535C281.158 14.1335 280.918 14.4935 280.838 14.9335H278.718C278.818 13.9135 279.278 13.1135 280.078 12.5535C280.878 11.9935 281.918 11.6935 283.218 11.6935C284.578 11.6935 285.638 12.0135 286.398 12.6535C287.138 13.2935 287.518 14.2135 287.518 15.4135V19.4535C287.518 19.9335 287.738 20.1735 288.198 20.1735H288.618ZM285.378 17.4935H282.698C282.018 17.4935 281.518 17.6335 281.158 17.8935C280.798 18.1535 280.618 18.5335 280.618 19.0335C280.618 19.4735 280.778 19.8335 281.118 20.0935C281.458 20.3735 281.918 20.4935 282.518 20.4935C283.398 20.4935 284.098 20.2535 284.598 19.7735C285.098 19.2935 285.358 18.6535 285.378 17.8535V17.4935ZM298.155 12.8135C298.915 13.5735 299.315 14.7735 299.315 16.4135V22.0535H297.135V16.5335C297.135 15.5735 296.915 14.8335 296.515 14.3135C296.095 13.8135 295.495 13.5535 294.695 13.5535C293.835 13.5535 293.155 13.8535 292.675 14.4535C292.195 15.0535 291.955 15.8535 291.955 16.8935V22.0535H289.795V11.8135H291.675L291.915 13.1535C292.675 12.1935 293.775 11.6935 295.195 11.6935C296.395 11.6935 297.395 12.0735 298.155 12.8135ZM311.079 20.1735V22.0535H309.939C309.259 22.0535 308.779 21.9135 308.499 21.6335C308.199 21.3535 308.059 20.9535 308.059 20.4135C307.279 21.5935 306.159 22.1735 304.679 22.1735C303.519 22.1735 302.599 21.9135 301.919 21.3735C301.219 20.8535 300.879 20.1135 300.879 19.1735C300.879 18.1335 301.239 17.3135 301.999 16.7535C302.739 16.1935 303.819 15.8935 305.259 15.8935H307.839V15.2735C307.839 14.7135 307.639 14.2535 307.239 13.9335C306.839 13.6135 306.279 13.4335 305.579 13.4335C304.939 13.4335 304.419 13.5735 304.019 13.8535C303.619 14.1335 303.379 14.4935 303.299 14.9335H301.179C301.279 13.9135 301.739 13.1135 302.539 12.5535C303.339 11.9935 304.379 11.6935 305.679 11.6935C307.039 11.6935 308.099 12.0135 308.859 12.6535C309.599 13.2935 309.979 14.2135 309.979 15.4135V19.4535C309.979 19.9335 310.199 20.1735 310.659 20.1735H311.079ZM307.839 17.4935H305.159C304.479 17.4935 303.979 17.6335 303.619 17.8935C303.259 18.1535 303.079 18.5335 303.079 19.0335C303.079 19.4735 303.239 19.8335 303.579 20.0935C303.919 20.3735 304.379 20.4935 304.979 20.4935C305.859 20.4935 306.559 20.2535 307.059 19.7735C307.559 19.2935 307.819 18.6535 307.839 17.8535V17.4935ZM322.196 11.8135V21.6335C322.196 23.0735 321.756 24.1935 320.916 24.9935C320.056 25.7935 318.736 26.1735 316.956 26.1735C315.556 26.1735 314.436 25.8735 313.576 25.2535C312.696 24.6335 312.216 23.7535 312.136 22.6135H314.336C314.456 23.1935 314.776 23.6335 315.256 23.9535C315.736 24.2735 316.356 24.4135 317.116 24.4135C319.076 24.4135 320.056 23.4735 320.056 21.5535V20.4135C319.296 21.5335 318.196 22.0935 316.716 22.0935C315.776 22.0935 314.936 21.8935 314.216 21.4735C313.476 21.0535 312.896 20.4535 312.496 19.6735C312.076 18.8935 311.876 17.9735 311.876 16.8935C311.876 15.8735 312.076 14.9735 312.496 14.1735C312.916 13.3935 313.496 12.7935 314.236 12.3535C314.956 11.9135 315.796 11.6935 316.716 11.6935C317.476 11.6935 318.156 11.8535 318.716 12.1535C319.276 12.4735 319.716 12.8935 320.076 13.4135L320.316 11.8135H322.196ZM319.236 19.3535C319.776 18.7335 320.056 17.9335 320.056 16.9335C320.056 15.9335 319.776 15.1135 319.236 14.4735C318.676 13.8335 317.956 13.5135 317.076 13.5135C316.176 13.5135 315.456 13.8335 314.916 14.4535C314.356 15.0935 314.096 15.8935 314.096 16.8935C314.096 17.8935 314.356 18.7135 314.916 19.3335C315.456 19.9735 316.176 20.2735 317.076 20.2735C317.956 20.2735 318.676 19.9735 319.236 19.3535ZM324.546 14.1935C324.966 13.3935 325.546 12.7935 326.306 12.3535C327.066 11.9135 327.926 11.6935 328.906 11.6935C329.886 11.6935 330.746 11.8935 331.506 12.2935C332.266 12.6935 332.846 13.2735 333.286 13.9935C333.726 14.7335 333.946 15.5935 333.966 16.5735C333.966 16.8535 333.946 17.1135 333.906 17.3935H326.186V17.5135C326.226 18.4135 326.506 19.1135 327.026 19.6335C327.526 20.1535 328.206 20.4135 329.046 20.4135C329.706 20.4135 330.266 20.2735 330.726 19.9535C331.166 19.6335 331.466 19.1935 331.626 18.6135H333.786C333.586 19.6535 333.086 20.5135 332.266 21.1735C331.446 21.8535 330.426 22.1735 329.206 22.1735C328.126 22.1735 327.206 21.9735 326.406 21.5335C325.606 21.0935 325.006 20.4935 324.566 19.6935C324.126 18.9135 323.926 17.9935 323.926 16.9535C323.926 15.9135 324.126 14.9935 324.546 14.1935ZM331.766 15.8135C331.666 15.0735 331.366 14.4935 330.866 14.0735C330.366 13.6535 329.746 13.4335 328.986 13.4335C328.266 13.4335 327.666 13.6535 327.146 14.0935C326.626 14.5335 326.346 15.0935 326.266 15.8135H331.766ZM350.273 12.7935C350.973 13.5135 351.333 14.6735 351.333 16.2735V22.0535H349.173V16.2935C349.173 15.4135 348.993 14.7335 348.633 14.2535C348.273 13.7935 347.733 13.5535 347.033 13.5535C346.273 13.5535 345.693 13.8335 345.253 14.3535C344.813 14.8735 344.613 15.5935 344.613 16.5135V22.0535H342.433V16.2935C342.433 15.3935 342.233 14.7135 341.873 14.2535C341.513 13.7935 340.973 13.5535 340.273 13.5535C339.533 13.5535 338.953 13.8335 338.513 14.3735C338.073 14.9335 337.873 15.6535 337.873 16.5735V22.0535H335.713V11.8135H337.593L337.833 13.1535C338.553 12.1935 339.553 11.7135 340.833 11.6935C341.553 11.6935 342.173 11.8535 342.733 12.1535C343.273 12.4735 343.693 12.9335 343.993 13.5535C344.353 12.9735 344.813 12.5135 345.413 12.1935C345.993 11.8735 346.693 11.6935 347.533 11.6935C348.653 11.6935 349.553 12.0735 350.273 12.7935ZM353.531 14.1935C353.951 13.3935 354.531 12.7935 355.291 12.3535C356.051 11.9135 356.911 11.6935 357.891 11.6935C358.871 11.6935 359.731 11.8935 360.491 12.2935C361.251 12.6935 361.831 13.2735 362.271 13.9935C362.711 14.7335 362.931 15.5935 362.951 16.5735C362.951 16.8535 362.931 17.1135 362.891 17.3935H355.171V17.5135C355.211 18.4135 355.491 19.1135 356.011 19.6335C356.511 20.1535 357.191 20.4135 358.031 20.4135C358.691 20.4135 359.251 20.2735 359.711 19.9535C360.151 19.6335 360.451 19.1935 360.611 18.6135H362.771C362.571 19.6535 362.071 20.5135 361.251 21.1735C360.431 21.8535 359.411 22.1735 358.191 22.1735C357.111 22.1735 356.191 21.9735 355.391 21.5335C354.591 21.0935 353.991 20.4935 353.551 19.6935C353.111 18.9135 352.911 17.9935 352.911 16.9535C352.911 15.9135 353.111 14.9935 353.531 14.1935ZM360.751 15.8135C360.651 15.0735 360.351 14.4935 359.851 14.0735C359.351 13.6535 358.731 13.4335 357.971 13.4335C357.251 13.4335 356.651 13.6535 356.131 14.0935C355.611 14.5335 355.331 15.0935 355.251 15.8135H360.751ZM373.057 12.8135C373.817 13.5735 374.217 14.7735 374.217 16.4135V22.0535H372.037V16.5335C372.037 15.5735 371.817 14.8335 371.417 14.3135C370.997 13.8135 370.397 13.5535 369.597 13.5535C368.737 13.5535 368.057 13.8535 367.577 14.4535C367.097 15.0535 366.857 15.8535 366.857 16.8935V22.0535H364.697V11.8135H366.577L366.817 13.1535C367.577 12.1935 368.677 11.6935 370.097 11.6935C371.297 11.6935 372.297 12.0735 373.057 12.8135ZM376.841 13.7135H375.061V11.8135H376.841V8.95347H379.021V11.8135H381.481V13.7135H379.021V19.0535C379.021 19.4535 379.101 19.7535 379.261 19.9135C379.421 20.0735 379.681 20.1535 380.081 20.1535H381.721V22.0535H379.641C378.661 22.0535 377.941 21.8335 377.501 21.3735C377.061 20.9335 376.841 20.2335 376.841 19.2735V13.7135Z" fill="#041E42"/>
</svg>
