<svg width="422" height="29" viewBox="0 0 422 29" fill="none" xmlns="http://www.w3.org/2000/svg">
<mask id="mask0_4807_1118" style="mask-type:luminance" maskUnits="userSpaceOnUse" x="126" y="7" width="3" height="3">
<path fill-rule="evenodd" clip-rule="evenodd" d="M126.185 7.37769H128.635V9.74496H126.185V7.37769Z" fill="white"/>
</mask>
<g mask="url(#mask0_4807_1118)">
<path fill-rule="evenodd" clip-rule="evenodd" d="M127.239 8.49153H127.385C127.56 8.49153 127.646 8.42659 127.646 8.29758C127.646 8.23264 127.625 8.18675 127.581 8.15731C127.538 8.12787 127.469 8.11402 127.376 8.11402H127.241V8.49153H127.239ZM127.843 8.521C127.784 8.58075 127.709 8.62447 127.616 8.65218L127.973 9.18469H127.649L127.354 8.69461H127.238V9.18469H126.962V7.9084H127.339C127.732 7.9084 127.928 8.03742 127.928 8.29631C127.93 8.38679 127.902 8.46083 127.843 8.521V8.521ZM127.903 9.39506C128.05 9.31323 128.164 9.1998 128.246 9.05564C128.329 8.91017 128.37 8.74782 128.37 8.56556C128.37 8.38416 128.329 8.21965 128.246 8.07288C128.164 7.92612 128.05 7.81139 127.903 7.72827C127.756 7.64558 127.589 7.60315 127.402 7.60315C127.221 7.60315 127.059 7.64558 126.914 7.72827C126.768 7.81139 126.655 7.92612 126.573 8.07288C126.49 8.21965 126.449 8.38286 126.449 8.56556C126.449 8.74782 126.49 8.91017 126.573 9.05564C126.655 9.1998 126.768 9.31323 126.914 9.39506C127.059 9.47688 127.221 9.51758 127.402 9.51758C127.59 9.51758 127.756 9.47688 127.903 9.39506V9.39506ZM128.029 7.537C128.218 7.64307 128.366 7.78724 128.473 7.9695C128.58 8.1509 128.635 8.35005 128.635 8.56565C128.635 8.78125 128.582 8.9791 128.473 9.1605C128.366 9.34017 128.217 9.48303 128.029 9.5878C127.84 9.69257 127.632 9.74496 127.404 9.74496C127.182 9.74496 126.976 9.69257 126.79 9.5878C126.602 9.48303 126.456 9.34017 126.347 9.1605C126.239 8.9804 126.185 8.78255 126.185 8.56565C126.185 8.35005 126.239 8.1509 126.347 7.9695C126.454 7.78854 126.602 7.64437 126.79 7.537C126.976 7.43137 127.182 7.37769 127.404 7.37769C127.632 7.37769 127.84 7.43007 128.029 7.537V7.537Z" fill="white"/>
</g>
<path fill-rule="evenodd" clip-rule="evenodd" d="M41.325 11.3847C41.2458 11.4613 41.1501 11.4981 41.038 11.4981H37.5949C37.4827 11.4981 37.4264 11.5518 37.4264 11.6604V19.4839C37.4264 20.3074 37.6126 20.9018 37.9828 21.2694C38.3542 21.6382 38.9452 21.8209 39.7552 21.8209H40.7687C40.8808 21.8209 40.9765 21.859 41.0557 21.9343C41.1349 22.011 41.1743 22.1028 41.1743 22.2101V24.6449C41.1743 24.8835 41.0393 25.0237 40.77 25.067L39.014 25.0991C37.2364 25.0991 35.9077 24.8068 35.031 24.2224C34.1544 23.6379 33.7028 22.534 33.6812 20.9109V11.6591C33.6812 11.5505 33.6249 11.4968 33.5127 11.4968H31.5884C31.4758 11.4968 31.3801 11.46 31.3013 11.3834C31.2221 11.308 31.1823 11.2162 31.1823 11.1076V8.83512C31.1823 8.72645 31.2221 8.63467 31.3013 8.55934C31.3801 8.48401 31.4745 8.44591 31.5884 8.44591H33.5127C33.6249 8.44591 33.6812 8.39223 33.6812 8.28356V4.48589C33.6812 4.37765 33.7206 4.28544 33.7998 4.21054C33.879 4.13521 33.9734 4.09668 34.0868 4.09668H37.0234C37.1355 4.09668 37.2312 4.13521 37.3104 4.21054C37.3897 4.28674 37.429 4.37895 37.429 4.48589V8.28356C37.429 8.39223 37.4853 8.44591 37.5975 8.44591H41.0406C41.1527 8.44591 41.2484 8.48401 41.3276 8.55934C41.4068 8.63597 41.4462 8.72775 41.4462 8.83512V11.1076C41.4423 11.2175 41.4029 11.3093 41.325 11.3847" fill="white"/>
<path fill-rule="evenodd" clip-rule="evenodd" d="M47.1033 12.0341C46.5521 12.435 46.1629 12.9913 45.9382 13.7057C45.8027 14.0745 45.7122 14.5494 45.6677 15.1339C45.6218 15.2421 45.6677 15.2958 45.8027 15.2958H52.6556C52.7677 15.2958 52.824 15.2421 52.824 15.1339C52.7781 14.5927 52.7119 14.1819 52.621 13.8996C52.4184 13.1199 52.0188 12.5151 51.4231 12.0813C50.8269 11.6488 50.0779 11.4319 49.1783 11.4319C48.3462 11.4332 47.6544 11.6332 47.1033 12.0341M56.8083 16.6934L56.775 17.6999C56.775 17.9606 56.6395 18.0891 56.3702 18.0891H45.804C45.6919 18.0891 45.6356 18.1441 45.6356 18.2515C45.7032 18.9658 45.804 19.452 45.9395 19.7126C46.4794 21.2708 47.7964 22.0604 49.8892 22.0821C51.4192 22.0821 52.634 21.476 53.5349 20.2638C53.6241 20.1334 53.7379 20.0685 53.873 20.0685C53.9622 20.0685 54.0414 20.1005 54.109 20.1655L56.2018 21.8206C56.4048 21.9725 56.4381 22.1448 56.3026 22.3401C55.6047 23.2921 54.677 24.0285 53.5184 24.5476C52.3595 25.0671 51.0706 25.3273 49.6528 25.3273C47.8968 25.3273 46.4067 24.9485 45.1802 24.1918C43.9537 23.435 43.0592 22.373 42.4964 21.0101C41.9782 19.8412 41.7206 18.2182 41.7206 16.1405C41.7206 14.8863 41.8557 13.8681 42.125 13.0896C42.5757 11.5748 43.4242 10.3791 44.6736 9.50237C45.9227 8.62568 47.4249 8.18799 49.1796 8.18799C53.6128 8.18799 56.11 10.4172 56.6728 14.8759C56.7633 15.4158 56.8083 16.0219 56.8083 16.6934" fill="white"/>
<path fill-rule="evenodd" clip-rule="evenodd" d="M70.9321 9.74477C72.0231 10.7834 72.5694 12.2012 72.5694 13.9979V24.6459C72.5694 24.7545 72.5296 24.8463 72.4508 24.9216C72.3716 24.9983 72.2759 25.0351 72.1633 25.0351H69.0575C68.9454 25.0351 68.8492 24.9983 68.7705 24.9216C68.6912 24.8463 68.6518 24.7545 68.6518 24.6459V14.7763C68.6518 13.781 68.3596 12.9744 67.7738 12.3584C67.1881 11.7419 66.4123 11.4332 65.4447 11.4332C64.4775 11.4332 63.6952 11.7367 63.0995 12.3415C62.5033 12.9476 62.2046 13.7494 62.2046 14.7447V24.6459C62.2046 24.7545 62.1652 24.8463 62.086 24.9216C62.0068 24.9983 61.9111 25.0351 61.799 25.0351H58.6931C58.5805 25.0351 58.4849 24.9983 58.4056 24.9216C58.3268 24.8463 58.287 24.7545 58.287 24.6459V8.83604C58.287 8.72781 58.3268 8.63603 58.4056 8.5607C58.4849 8.48537 58.5792 8.44684 58.6931 8.44684H61.799C61.9111 8.44684 62.0068 8.48537 62.086 8.5607C62.1652 8.63689 62.2046 8.72911 62.2046 8.83604V9.87508C62.2046 9.94002 62.2263 9.98331 62.2726 10.005C62.3172 10.0266 62.3514 10.005 62.373 9.94002C63.296 8.7711 64.6905 8.18665 66.559 8.18665C68.3825 8.18665 69.8398 8.70616 70.9321 9.74477" fill="white"/>
<path fill-rule="evenodd" clip-rule="evenodd" d="M83.5566 21.4646C84.3442 20.9018 84.7381 20.187 84.7381 19.322V17.7959C84.7381 17.6873 84.6823 17.6336 84.5697 17.6336H81.7344C80.5413 17.6336 79.6018 17.8505 78.9156 18.2834C78.229 18.7159 77.8857 19.3333 77.8857 20.1338C77.8857 20.8264 78.1498 21.3624 78.6792 21.7404C79.2078 22.1192 79.8893 22.3079 80.7209 22.3079C81.8236 22.3092 82.7691 22.0287 83.5566 21.4646M85.4057 8.90137C86.4854 9.37716 87.3188 10.0318 87.9033 10.8652C88.4877 11.6985 88.7808 12.6454 88.7808 13.7061V24.6458C88.7808 24.7545 88.7414 24.8463 88.6622 24.9216C88.5834 24.9982 88.4877 25.035 88.3752 25.035H85.2693C85.1568 25.035 85.0611 24.9982 84.9819 24.9216C84.9031 24.8463 84.8632 24.7545 84.8632 24.6458V23.6072C84.8632 23.5423 84.8403 23.505 84.7957 23.4938C84.7498 23.4834 84.7052 23.4985 84.6606 23.5423C83.5579 24.7112 81.9604 25.2956 79.8672 25.2956C78.1792 25.2956 76.7895 24.8848 75.6985 24.0613C74.6062 23.2396 74.0611 22.0157 74.0611 20.3927C74.0611 18.7042 74.6737 17.3899 75.9011 16.4482C77.1276 15.5066 78.8554 15.0356 81.0824 15.0356H84.6935C84.8061 15.0356 84.8619 14.9819 84.8619 14.8737V14.094C84.8619 13.2502 84.603 12.5956 84.0861 12.1297C83.5679 11.6639 82.7921 11.4319 81.7574 11.4319C80.9023 11.4319 80.2092 11.5773 79.681 11.8696C79.1516 12.1618 78.8195 12.5674 78.6857 13.087C78.6182 13.3471 78.4597 13.4558 78.2134 13.4112L74.9391 13.022C74.8266 13.0004 74.7309 12.9631 74.6521 12.9082C74.5729 12.8549 74.5447 12.7843 74.5677 12.6978C74.7478 11.3782 75.4838 10.295 76.7791 9.4512C78.0731 8.60784 79.6988 8.1853 81.6565 8.1853C83.077 8.1866 84.326 8.42515 85.4057 8.90137" fill="white"/>
<path fill-rule="evenodd" clip-rule="evenodd" d="M101.407 16.7571C101.407 15.0687 101.069 13.7495 100.394 12.7962C99.7864 11.8875 98.8855 11.4333 97.6932 11.4333C96.591 11.4333 95.7459 11.9091 95.1614 12.8611C94.599 13.7495 94.3181 15.0358 94.3181 16.7238C94.3181 18.3905 94.577 19.646 95.0939 20.4898C95.6783 21.5284 96.5563 22.048 97.7265 22.048C98.3556 22.048 98.9184 21.9124 99.415 21.6419C99.9098 21.3717 100.303 20.9873 100.596 20.4898C101.136 19.5824 101.407 18.3382 101.407 16.7571M105.424 16.6934C105.424 18.2299 105.21 19.5824 104.782 20.7513C104.287 22.1791 103.488 23.2947 102.386 24.0948C101.283 24.8962 99.9332 25.2953 98.3352 25.2953C96.7594 25.2953 95.4666 24.7226 94.4536 23.5753C94.4073 23.5103 94.3627 23.4887 94.3181 23.5103C94.2722 23.532 94.2505 23.5753 94.2505 23.6402V24.6472C94.2505 24.7559 94.2107 24.8477 94.1319 24.923C94.0527 24.9996 93.957 25.0364 93.8449 25.0364H90.7386C90.6265 25.0364 90.5308 24.9996 90.4516 24.923C90.3723 24.8477 90.3329 24.7559 90.3329 24.6472V2.70061C90.3329 2.59237 90.3723 2.50016 90.4516 2.42483C90.5308 2.34993 90.6252 2.3114 90.7386 2.3114H93.8449C93.957 2.3114 94.0527 2.34993 94.1319 2.42483C94.2107 2.50146 94.2505 2.59367 94.2505 2.70061V9.74484C94.2505 9.80978 94.2722 9.85308 94.3181 9.87516C94.3627 9.8968 94.4073 9.88641 94.4536 9.84312C95.4207 8.73914 96.7031 8.18802 98.3019 8.18802C99.9674 8.18802 101.346 8.58848 102.437 9.38897C103.528 10.1903 104.333 11.3043 104.85 12.7321C105.233 13.9443 105.424 15.2639 105.424 16.6934" fill="white"/>
<path fill-rule="evenodd" clip-rule="evenodd" d="M107.041 24.9471C106.962 24.8718 106.922 24.78 106.922 24.6713V2.726C106.922 2.61776 106.962 2.52598 107.041 2.45065C107.12 2.37532 107.215 2.33679 107.328 2.33679H110.434C110.546 2.33679 110.642 2.37532 110.721 2.45065C110.801 2.52728 110.84 2.61906 110.84 2.726V24.6713C110.84 24.78 110.801 24.8718 110.721 24.9471C110.642 25.0237 110.546 25.0605 110.434 25.0605H107.327C107.215 25.0605 107.119 25.0237 107.041 24.9471" fill="white"/>
<path fill-rule="evenodd" clip-rule="evenodd" d="M117.736 12.0085C117.185 12.4094 116.796 12.9658 116.571 13.6801C116.435 14.0489 116.346 14.5239 116.3 15.1083C116.255 15.2166 116.3 15.2703 116.435 15.2703H123.288C123.4 15.2703 123.457 15.2166 123.457 15.1083C123.411 14.5672 123.345 14.1563 123.254 13.874C123.051 13.0943 122.652 12.4895 122.056 12.0557C121.46 11.6232 120.711 11.4063 119.811 11.4063C118.979 11.4089 118.287 11.6089 117.736 12.0085M127.441 16.6677L127.408 17.6743C127.408 17.9349 127.272 18.0635 127.003 18.0635H116.437C116.325 18.0635 116.268 18.1185 116.268 18.2259C116.336 18.9402 116.437 19.4264 116.572 19.687C117.112 21.2451 118.429 22.0348 120.522 22.0564C122.052 22.0564 123.267 21.4503 124.168 20.2381C124.257 20.1078 124.371 20.0429 124.504 20.0429C124.594 20.0429 124.673 20.0749 124.74 20.1398L126.833 21.7949C127.036 21.9469 127.07 22.1192 126.934 22.3145C126.236 23.2665 125.308 24.0029 124.15 24.522C122.991 25.0415 121.702 25.3017 120.284 25.3017C118.53 25.3017 117.038 24.9229 115.812 24.1661C114.585 23.4093 113.691 22.3478 113.128 20.9845C112.61 19.8156 112.352 18.1925 112.352 16.1149C112.352 14.8607 112.488 13.8424 112.756 13.064C113.207 11.5492 114.056 10.3534 115.305 9.47673C116.555 8.60005 118.056 8.16235 119.811 8.16235C124.244 8.16235 126.741 10.3915 127.304 14.8503C127.395 15.3915 127.441 15.9976 127.441 16.6677" fill="white"/>
<path fill-rule="evenodd" clip-rule="evenodd" d="M28.0152 17.5035L22.5507 23.6287L27.335 14.5392C27.4792 14.2661 27.5597 13.9686 27.5814 13.6686L28.3394 15.9212C28.523 16.4675 28.3992 17.0736 28.0152 17.5035V17.5035ZM19.7509 26.7669C19.376 27.1877 18.7976 27.383 18.2439 27.2748L10.6373 25.7907L20.4566 25.2928C20.7285 25.279 20.99 25.2136 21.2324 25.1066L19.7509 26.7669ZM4.84464 23.8317L2.27735 16.2082L7.73402 24.817C7.85135 25.0019 7.99552 25.1664 8.15743 25.3058L6.05944 24.8958C5.49447 24.7863 5.02993 24.378 4.84464 23.8317V23.8317ZM1.26515 10.6571L6.73092 4.53329L1.94659 13.6227C1.80242 13.8959 1.72233 14.1933 1.70025 14.4933L0.94262 12.2408C0.757325 11.6936 0.882442 11.087 1.26515 10.6571V10.6571ZM9.53069 1.39502C9.83808 1.05083 10.2797 0.857747 10.7329 0.857747C10.8334 0.857747 10.9356 0.868137 11.0377 0.887186L18.6448 2.37128L8.82502 2.86915C8.55313 2.883 8.29164 2.94838 8.0492 3.05531L9.53069 1.39502ZM24.2699 9.24189L26.522 12.7958C26.7787 13.2006 26.7991 13.7162 26.5757 14.1396L24.3015 18.4594V9.5891C24.3015 9.47177 24.2902 9.35575 24.2699 9.24189V9.24189ZM5.01218 18.9188L2.75964 15.3649C2.50334 14.9601 2.48256 14.4449 2.70596 14.021L4.97885 9.70124V18.5716C4.97885 18.6902 4.9901 18.8054 5.01218 18.9188V18.9188ZM23.4443 18.5729C23.4443 18.9457 23.2438 19.2937 22.9208 19.4816L15.1662 23.9698C14.8419 24.1573 14.4384 24.1573 14.1146 23.9698L6.36077 19.4803C6.0378 19.2929 5.83778 18.9457 5.83778 18.5716V9.58783C5.83778 9.21508 6.0378 8.867 6.36077 8.67911L14.1159 4.19134C14.2778 4.09653 14.4592 4.05063 14.6415 4.05063C14.8229 4.05063 15.0051 4.09782 15.1675 4.19134L22.9208 8.68041C23.2438 8.867 23.4443 9.21508 23.4443 9.58913V18.5729ZM20.8216 3.80344L23.5092 8.04227C23.4581 8.00547 23.4057 7.97084 23.3512 7.93924L15.5961 3.45103C15.5601 3.43068 15.5233 3.41034 15.4861 3.39215L19.6197 3.18305C20.1007 3.15491 20.5627 3.39475 20.8216 3.80344V3.80344ZM8.86701 3.72679L13.6232 3.48565L5.93086 7.93922C5.91918 7.94528 5.90792 7.95308 5.89623 7.96087L7.74788 4.44243C7.96738 4.02378 8.39641 3.75104 8.86701 3.72679V3.72679ZM8.46005 24.359L5.77241 20.1197C5.8235 20.1565 5.87588 20.1911 5.93086 20.2227L13.6855 24.7122C13.7215 24.7326 13.7583 24.7529 13.7955 24.7711L9.66231 24.9802C9.17829 25.0032 8.71765 24.7659 8.46005 24.359V24.359ZM20.4133 24.4339L15.6571 24.6755L23.3512 20.2215C23.3624 20.2154 23.3741 20.2076 23.3854 20.1999L21.5337 23.7183C21.3142 24.1369 20.8843 24.411 20.4133 24.4339V24.4339ZM24.4357 4.32899L27.0034 11.9525L21.5467 3.34363C21.429 3.15747 21.2848 2.99426 21.1229 2.85485L23.2222 3.26484C23.7863 3.37437 24.2521 3.78263 24.4357 4.32899V4.32899ZM29.152 15.6467L25.2487 4.0545C24.9664 3.21764 24.2521 2.59076 23.3841 2.42235L11.1996 0.045118C10.3498 -0.120695 9.46445 0.177595 8.88866 0.82353L0.62485 10.0857C0.0364959 10.745 -0.153561 11.6754 0.128277 12.5127L4.03202 24.1049C4.31386 24.9435 5.02863 25.5686 5.89623 25.737L18.0807 28.1143C18.2365 28.145 18.3919 28.1589 18.5478 28.1589C19.2431 28.1589 19.9206 27.8632 20.3917 27.3358L28.6559 18.0741C29.2442 17.4156 29.4343 16.4853 29.152 15.6467V15.6467Z" fill="white"/>
<path d="M144.752 7.65899H147.6L152.105 20.7785L156.658 7.65899H159.436L153.716 24H150.495L144.752 7.65899ZM171.041 12.0477V24H168.823L168.543 22.4826C167.633 23.6031 166.395 24.1401 164.855 24.1401C163.454 24.1401 162.31 23.7199 161.446 22.8328C160.559 21.969 160.139 20.5684 160.139 18.6308V12.0477H162.66V18.374C162.66 19.5412 162.894 20.4283 163.361 21.0353C163.828 21.6422 164.505 21.9457 165.438 21.9457C166.395 21.9457 167.142 21.5955 167.703 20.8952C168.24 20.1949 168.52 19.2144 168.52 17.9772V12.0477H171.041ZM173.525 7.65899H176.047V24H173.525V7.65899ZM188.276 13.2149C189.163 14.102 189.63 15.5027 189.63 17.4169V24H187.085V17.557C187.085 16.4364 186.829 15.5727 186.362 14.9658C185.871 14.3822 185.171 14.0787 184.237 14.0787C183.234 14.0787 182.44 14.4288 181.88 15.1292C181.319 15.8295 181.039 16.7633 181.039 17.9772V24H178.518V12.0477H180.712L180.993 13.6118C181.88 12.4913 183.164 11.9077 184.821 11.9077C186.222 11.9077 187.389 12.3512 188.276 13.2149ZM192.203 14.8257C192.693 13.8919 193.37 13.1916 194.257 12.678C195.144 12.1644 196.148 11.9077 197.292 11.9077C198.436 11.9077 199.44 12.1411 200.327 12.608C201.214 13.0749 201.891 13.7519 202.404 14.5922C202.918 15.456 203.175 16.4598 203.198 17.6037C203.198 17.9305 203.175 18.234 203.128 18.5608H194.117V18.7008C194.164 19.7513 194.491 20.5684 195.098 21.1753C195.681 21.7823 196.475 22.0858 197.455 22.0858C198.226 22.0858 198.879 21.9224 199.416 21.5488C199.93 21.1753 200.28 20.6618 200.467 19.9848H202.988C202.755 21.1987 202.171 22.2025 201.214 22.9729C200.257 23.7666 199.066 24.1401 197.642 24.1401C196.382 24.1401 195.308 23.9066 194.374 23.393C193.44 22.8795 192.74 22.1791 192.226 21.2454C191.713 20.3349 191.479 19.2611 191.479 18.0472C191.479 16.8333 191.713 15.7595 192.203 14.8257ZM200.63 16.7166C200.513 15.8528 200.163 15.1759 199.58 14.6856C198.996 14.1954 198.272 13.9386 197.385 13.9386C196.545 13.9386 195.845 14.1954 195.238 14.709C194.631 15.2225 194.304 15.8762 194.211 16.7166H200.63ZM211.843 12.0477V14.4055H210.722C209.672 14.4055 208.925 14.7557 208.458 15.4326C207.991 16.1096 207.757 16.9734 207.757 18.0005V24H205.236V12.0477H207.477L207.757 13.8452C208.084 13.285 208.528 12.8648 209.088 12.538C209.625 12.2111 210.349 12.0477 211.282 12.0477H211.843ZM224.426 21.8056V24H223.095C222.302 24 221.741 23.8366 221.415 23.5098C221.064 23.1829 220.901 22.7161 220.901 22.0858C219.991 23.4631 218.683 24.1401 216.956 24.1401C215.602 24.1401 214.528 23.8366 213.734 23.2063C212.917 22.5993 212.52 21.7356 212.52 20.6384C212.52 19.4245 212.941 18.4674 213.828 17.8138C214.691 17.1601 215.952 16.81 217.633 16.81H220.644V16.0863C220.644 15.4326 220.411 14.8957 219.944 14.5222C219.477 14.1487 218.823 13.9386 218.006 13.9386C217.259 13.9386 216.652 14.102 216.186 14.4288C215.719 14.7557 215.438 15.1759 215.345 15.6894H212.871C212.987 14.4989 213.524 13.5651 214.458 12.9115C215.392 12.2578 216.606 11.9077 218.123 11.9077C219.711 11.9077 220.948 12.2812 221.835 13.0282C222.699 13.7752 223.142 14.849 223.142 16.2497V20.9652C223.142 21.5255 223.399 21.8056 223.936 21.8056H224.426ZM220.644 18.6775H217.516C216.722 18.6775 216.139 18.8409 215.719 19.1444C215.298 19.4479 215.088 19.8914 215.088 20.475C215.088 20.9886 215.275 21.4088 215.672 21.7123C216.069 22.0391 216.606 22.1791 217.306 22.1791C218.333 22.1791 219.15 21.899 219.734 21.3388C220.317 20.7785 220.621 20.0315 220.644 19.0977V18.6775ZM235.114 12.6547C235.954 13.1449 236.631 13.8452 237.121 14.7557C237.588 15.6894 237.845 16.7633 237.845 18.0239C237.845 19.2378 237.588 20.2883 237.121 21.222C236.631 22.1558 235.954 22.8561 235.114 23.3697C234.25 23.8833 233.27 24.1401 232.196 24.1401C231.309 24.1401 230.538 23.9767 229.885 23.6498C229.231 23.323 228.694 22.8561 228.297 22.2725L227.994 24H225.799V7.65899H228.321V13.8219C229.254 12.5613 230.562 11.9077 232.196 11.9077C233.27 11.9077 234.25 12.1644 235.114 12.6547ZM234.297 20.9186C234.95 20.1715 235.277 19.2144 235.277 18.0239C235.277 16.8566 234.95 15.9229 234.297 15.1759C233.643 14.4288 232.803 14.0553 231.775 14.0553C230.725 14.0553 229.885 14.4288 229.254 15.1525C228.601 15.8995 228.297 16.8333 228.297 18.0005C228.297 19.1911 228.601 20.1482 229.254 20.8952C229.885 21.6422 230.725 22.0157 231.775 22.0157C232.803 22.0157 233.643 21.6656 234.297 20.9186ZM242.223 7.70568C242.503 7.98581 242.667 8.35932 242.667 8.77952C242.667 9.22306 242.503 9.59657 242.223 9.8767C241.919 10.1568 241.546 10.2969 241.126 10.2969C240.682 10.2969 240.309 10.1568 240.029 9.8767C239.725 9.59657 239.585 9.22306 239.585 8.77952C239.585 8.35932 239.725 7.98581 240.029 7.70568C240.309 7.42555 240.682 7.26214 241.126 7.26214C241.546 7.26214 241.919 7.42555 242.223 7.70568ZM239.865 12.0477H242.386V24H239.865V12.0477ZM244.858 7.65899H247.379V24H244.858V7.65899ZM252.208 7.70568C252.488 7.98581 252.652 8.35932 252.652 8.77952C252.652 9.22306 252.488 9.59657 252.208 9.8767C251.905 10.1568 251.531 10.2969 251.111 10.2969C250.667 10.2969 250.294 10.1568 250.014 9.8767C249.71 9.59657 249.57 9.22306 249.57 8.77952C249.57 8.35932 249.71 7.98581 250.014 7.70568C250.294 7.42555 250.667 7.26214 251.111 7.26214C251.531 7.26214 251.905 7.42555 252.208 7.70568ZM249.85 12.0477H252.372V24H249.85V12.0477ZM255.613 14.2654H253.536V12.0477H255.613V8.70949H258.158V12.0477H261.029V14.2654H258.158V20.4984C258.158 20.9652 258.251 21.3154 258.438 21.5022C258.625 21.6889 258.928 21.7823 259.395 21.7823H261.309V24H258.882C257.738 24 256.897 23.7432 256.384 23.2063C255.87 22.6927 255.613 21.8757 255.613 20.7551V14.2654ZM264.156 12.0477L267.495 21.2687L270.739 12.0477H273.424L268.008 25.8675C267.728 26.5912 267.471 27.1515 267.238 27.525C267.004 27.8985 266.701 28.202 266.374 28.3887C266.024 28.5755 265.557 28.6689 264.997 28.6689H262.289V26.4512H264.063C264.53 26.4512 264.88 26.3811 265.067 26.2411C265.254 26.101 265.44 25.7508 265.65 25.2372L266.141 24.0934L261.472 12.0477H264.156ZM280.929 7.65899H284.407L289.636 20.5217L294.772 7.65899H298.18V24H295.589V11.9777L290.687 24H288.422L283.52 11.9777V24H280.929V7.65899ZM312.355 21.8056V24H311.024C310.23 24 309.67 23.8366 309.343 23.5098C308.993 23.1829 308.83 22.7161 308.83 22.0858C307.919 23.4631 306.612 24.1401 304.885 24.1401C303.531 24.1401 302.457 23.8366 301.663 23.2063C300.846 22.5993 300.449 21.7356 300.449 20.6384C300.449 19.4245 300.869 18.4674 301.756 17.8138C302.62 17.1601 303.881 16.81 305.562 16.81H308.573V16.0863C308.573 15.4326 308.339 14.8957 307.873 14.5222C307.406 14.1487 306.752 13.9386 305.935 13.9386C305.188 13.9386 304.581 14.102 304.114 14.4288C303.647 14.7557 303.367 15.1759 303.274 15.6894H300.799C300.916 14.4989 301.453 13.5651 302.387 12.9115C303.32 12.2578 304.534 11.9077 306.052 11.9077C307.639 11.9077 308.876 12.2812 309.763 13.0282C310.627 13.7752 311.071 14.849 311.071 16.2497V20.9652C311.071 21.5255 311.328 21.8056 311.864 21.8056H312.355ZM308.573 18.6775H305.445C304.651 18.6775 304.067 18.8409 303.647 19.1444C303.227 19.4479 303.017 19.8914 303.017 20.475C303.017 20.9886 303.204 21.4088 303.601 21.7123C303.997 22.0391 304.534 22.1791 305.235 22.1791C306.262 22.1791 307.079 21.899 307.663 21.3388C308.246 20.7785 308.55 20.0315 308.573 19.0977V18.6775ZM323.486 13.2149C324.373 14.102 324.84 15.5027 324.84 17.4169V24H322.295V17.557C322.295 16.4364 322.039 15.5727 321.572 14.9658C321.081 14.3822 320.381 14.0787 319.447 14.0787C318.444 14.0787 317.65 14.4288 317.09 15.1292C316.529 15.8295 316.249 16.7633 316.249 17.9772V24H313.728V12.0477H315.922L316.202 13.6118C317.09 12.4913 318.374 11.9077 320.031 11.9077C321.432 11.9077 322.599 12.3512 323.486 13.2149ZM338.571 21.8056V24H337.241C336.447 24 335.887 23.8366 335.56 23.5098C335.21 23.1829 335.046 22.7161 335.046 22.0858C334.136 23.4631 332.829 24.1401 331.101 24.1401C329.747 24.1401 328.673 23.8366 327.88 23.2063C327.063 22.5993 326.666 21.7356 326.666 20.6384C326.666 19.4245 327.086 18.4674 327.973 17.8138C328.837 17.1601 330.097 16.81 331.778 16.81H334.79V16.0863C334.79 15.4326 334.556 14.8957 334.089 14.5222C333.622 14.1487 332.969 13.9386 332.152 13.9386C331.405 13.9386 330.798 14.102 330.331 14.4288C329.864 14.7557 329.584 15.1759 329.491 15.6894H327.016C327.133 14.4989 327.67 13.5651 328.603 12.9115C329.537 12.2578 330.751 11.9077 332.268 11.9077C333.856 11.9077 335.093 12.2812 335.98 13.0282C336.844 13.7752 337.288 14.849 337.288 16.2497V20.9652C337.288 21.5255 337.544 21.8056 338.081 21.8056H338.571ZM334.79 18.6775H331.662C330.868 18.6775 330.284 18.8409 329.864 19.1444C329.444 19.4479 329.234 19.8914 329.234 20.475C329.234 20.9886 329.42 21.4088 329.817 21.7123C330.214 22.0391 330.751 22.1791 331.451 22.1791C332.479 22.1791 333.296 21.899 333.879 21.3388C334.463 20.7785 334.766 20.0315 334.79 19.0977V18.6775ZM351.547 12.0477V23.5098C351.547 25.1906 351.033 26.4978 350.053 27.4316C349.049 28.3654 347.508 28.8089 345.431 28.8089C343.797 28.8089 342.489 28.4588 341.485 27.7351C340.458 27.0114 339.898 25.9843 339.805 24.6536H342.373C342.513 25.3306 342.886 25.8442 343.446 26.2177C344.007 26.5912 344.73 26.7546 345.617 26.7546C347.905 26.7546 349.049 25.6574 349.049 23.4164V22.0858C348.162 23.393 346.878 24.0467 345.151 24.0467C344.053 24.0467 343.073 23.8132 342.232 23.323C341.369 22.8328 340.692 22.1325 340.225 21.222C339.735 20.3116 339.501 19.2378 339.501 17.9772C339.501 16.7866 339.735 15.7361 340.225 14.8023C340.715 13.8919 341.392 13.1916 342.256 12.678C343.096 12.1644 344.077 11.9077 345.151 11.9077C346.038 11.9077 346.831 12.0944 347.485 12.4446C348.139 12.8181 348.652 13.3083 349.072 13.9153L349.352 12.0477H351.547ZM348.092 20.8485C348.722 20.1248 349.049 19.1911 349.049 18.0239C349.049 16.8566 348.722 15.8995 348.092 15.1525C347.438 14.4055 346.598 14.032 345.571 14.032C344.52 14.032 343.68 14.4055 343.05 15.1292C342.396 15.8762 342.092 16.81 342.092 17.9772C342.092 19.1444 342.396 20.1015 343.05 20.8252C343.68 21.5722 344.52 21.9224 345.571 21.9224C346.598 21.9224 347.438 21.5722 348.092 20.8485ZM354.291 14.8257C354.781 13.8919 355.458 13.1916 356.345 12.678C357.232 12.1644 358.236 11.9077 359.38 11.9077C360.524 11.9077 361.527 12.1411 362.415 12.608C363.302 13.0749 363.979 13.7519 364.492 14.5922C365.006 15.456 365.263 16.4598 365.286 17.6037C365.286 17.9305 365.263 18.234 365.216 18.5608H356.205V18.7008C356.252 19.7513 356.578 20.5684 357.185 21.1753C357.769 21.7823 358.563 22.0858 359.543 22.0858C360.314 22.0858 360.967 21.9224 361.504 21.5488C362.018 21.1753 362.368 20.6618 362.555 19.9848H365.076C364.842 21.1987 364.259 22.2025 363.302 22.9729C362.345 23.7666 361.154 24.1401 359.73 24.1401C358.469 24.1401 357.396 23.9066 356.462 23.393C355.528 22.8795 354.828 22.1791 354.314 21.2454C353.8 20.3349 353.567 19.2611 353.567 18.0472C353.567 16.8333 353.8 15.7595 354.291 14.8257ZM362.718 16.7166C362.601 15.8528 362.251 15.1759 361.668 14.6856C361.084 14.1954 360.36 13.9386 359.473 13.9386C358.633 13.9386 357.932 14.1954 357.325 14.709C356.719 15.2225 356.392 15.8762 356.298 16.7166H362.718ZM384.319 13.1916C385.136 14.032 385.556 15.386 385.556 17.2535V24H383.035V17.2768C383.035 16.2497 382.825 15.456 382.405 14.8957C381.984 14.3588 381.354 14.0787 380.537 14.0787C379.65 14.0787 378.973 14.4055 378.459 15.0124C377.946 15.6194 377.712 16.4598 377.712 17.5336V24H375.168V17.2768C375.168 16.2264 374.934 15.4326 374.514 14.8957C374.094 14.3588 373.464 14.0787 372.647 14.0787C371.783 14.0787 371.106 14.4055 370.592 15.0358C370.079 15.6894 369.845 16.5298 369.845 17.6037V24H367.324V12.0477H369.518L369.799 13.6118C370.639 12.4913 371.806 11.931 373.3 11.9077C374.141 11.9077 374.864 12.0944 375.518 12.4446C376.148 12.8181 376.639 13.355 376.989 14.0787C377.409 13.4017 377.946 12.8648 378.646 12.4913C379.323 12.1178 380.14 11.9077 381.121 11.9077C382.428 11.9077 383.478 12.3512 384.319 13.1916ZM388.122 14.8257C388.612 13.8919 389.289 13.1916 390.176 12.678C391.063 12.1644 392.067 11.9077 393.211 11.9077C394.355 11.9077 395.358 12.1411 396.246 12.608C397.133 13.0749 397.81 13.7519 398.323 14.5922C398.837 15.456 399.094 16.4598 399.117 17.6037C399.117 17.9305 399.094 18.234 399.047 18.5608H390.036V18.7008C390.083 19.7513 390.409 20.5684 391.016 21.1753C391.6 21.7823 392.394 22.0858 393.374 22.0858C394.145 22.0858 394.798 21.9224 395.335 21.5488C395.849 21.1753 396.199 20.6618 396.386 19.9848H398.907C398.673 21.1987 398.09 22.2025 397.133 22.9729C396.175 23.7666 394.985 24.1401 393.561 24.1401C392.3 24.1401 391.226 23.9066 390.293 23.393C389.359 22.8795 388.659 22.1791 388.145 21.2454C387.631 20.3349 387.398 19.2611 387.398 18.0472C387.398 16.8333 387.631 15.7595 388.122 14.8257ZM396.549 16.7166C396.432 15.8528 396.082 15.1759 395.499 14.6856C394.915 14.1954 394.191 13.9386 393.304 13.9386C392.464 13.9386 391.763 14.1954 391.156 14.709C390.55 15.2225 390.223 15.8762 390.129 16.7166H396.549ZM410.913 13.2149C411.8 14.102 412.267 15.5027 412.267 17.4169V24H409.722V17.557C409.722 16.4364 409.466 15.5727 408.999 14.9658C408.509 14.3822 407.808 14.0787 406.874 14.0787C405.871 14.0787 405.077 14.4288 404.517 15.1292C403.956 15.8295 403.676 16.7633 403.676 17.9772V24H401.155V12.0477H403.349L403.63 13.6118C404.517 12.4913 405.801 11.9077 407.458 11.9077C408.859 11.9077 410.026 12.3512 410.913 13.2149ZM415.33 14.2654H413.253V12.0477H415.33V8.70949H417.875V12.0477H420.746V14.2654H417.875V20.4984C417.875 20.9652 417.968 21.3154 418.155 21.5022C418.342 21.6889 418.645 21.7823 419.112 21.7823H421.026V24H418.598C417.455 24 416.614 23.7432 416.101 23.2063C415.587 22.6927 415.33 21.8757 415.33 20.7551V14.2654Z" fill="white"/>
</svg>
