<svg width="110" height="121" fill="none" xmlns="http://www.w3.org/2000/svg"><path transform="translate(0 .612)" fill="#041E42" d="M0 0H110V120H0z"/><path fill-rule="evenodd" clip-rule="evenodd" d="M55 30.116c-15.554 0-28.207 13.92-28.207 31.028v.815h6.654v-1.63h-5.163c.393-15.835 12.227-28.582 26.717-28.582 14.489 0 26.322 12.747 26.715 28.582h-4.784v1.63h6.275v-.815c0-17.109-12.653-31.028-28.206-31.028" fill="#fff"/><path fill-rule="evenodd" clip-rule="evenodd" d="M61.952 40.705l-1.021-.458v23.391l-3.333 4-.909 1.016v19.97l.777.855.216.238 1.266 1.392V68.43l3.465-4.159V42.716c4.807 2.57 8.226 7.449 9.238 13.269 1.213 6.98-1.221 14-6.354 18.324l.9 1.293c5.581-4.7 8.23-12.334 6.91-19.923-1.177-6.767-5.348-12.366-11.155-14.973M49.069 48.745h9.09l1.478-1.627v-.003H49.07v-5.658l-.087-1.179-1.023.464c-8.05 3.649-12.704 13.135-11.065 22.554.845 4.862 3.27 9.205 6.825 12.229l.906-1.29c-3.27-2.78-5.499-6.775-6.276-11.244-1.438-8.264 2.39-16.581 9.238-20.274v16.992l3.364 3.701v3.834l-.998 1.11v12.86l.993 1.092.005-.153v.159l1.327 1.459h.155V62.734l-3.364-3.7v-5.89h5.09l1.482-1.63H49.07v-2.769z" fill="#fff"/></svg>