<svg width="120" height="121" viewBox="0 0 120 121" fill="none" xmlns="http://www.w3.org/2000/svg">
<rect y="0.106934" width="120" height="120" fill="#041E42"/>
<path fill-rule="evenodd" clip-rule="evenodd" d="M59.9871 22.6309C40.9117 22.6309 25.3936 38.149 25.3936 57.2231V58.1319H33.5539V56.3142H27.2228C27.7047 38.6605 42.2179 24.4485 59.9871 24.4485C77.7562 24.4485 92.2681 38.6605 92.7501 56.3142H86.883V58.1319H94.5793V57.2231C94.5793 38.149 79.0611 22.6309 59.9871 22.6309" fill="white"/>
<path fill-rule="evenodd" clip-rule="evenodd" d="M68.5119 34.4355L67.2595 33.9253V40.0013V51.5637V60.0034L63.173 64.463L62.0578 65.5962V87.8607L63.0102 88.8132L63.2755 89.0785L64.8279 90.6308V65.3462L69.0772 60.7097V36.6762C74.9725 39.5411 79.1654 44.9813 80.4063 51.4701C81.8945 59.251 78.9091 67.0793 72.6139 71.8991L73.7188 73.3411C80.5627 68.1009 83.8109 59.5894 82.1919 51.1291C80.7485 43.5841 75.6339 37.3427 68.5119 34.4355" fill="white"/>
<path fill-rule="evenodd" clip-rule="evenodd" d="M52.7128 43.401H63.8598L65.6736 41.5872V41.5834H52.7128V35.2753L52.6064 33.9614L51.3514 34.478C41.4786 38.5466 35.7717 49.122 37.7817 59.6229C38.8187 65.0439 41.7913 69.8855 46.1522 73.2568L47.2636 71.8198C43.2539 68.719 40.5197 64.2658 39.566 59.2832C37.8035 50.0705 42.4964 40.7976 50.8951 36.6802V55.6248L55.0214 59.7511V64.0248L53.7972 65.2618V79.6007L55.015 80.8172L55.0214 80.6467V80.8236L56.6481 82.4503H56.8391V58.9974L52.7128 54.8711V48.3054H58.9554L60.7731 46.4877H52.7128V43.401Z" fill="white"/>
</svg>
