<svg width="120" height="121" viewBox="0 0 120 121" fill="none" xmlns="http://www.w3.org/2000/svg">
<rect y="0.106934" width="120" height="120" fill="#041E42"/>
<path fill-rule="evenodd" clip-rule="evenodd" d="M64.2308 78.5928H62.4236V88.9763H57.0068V78.5928H55.1996V88.9763H45.308V90.7836H55.1996H64.2308H74.1211V88.9763H64.2308V78.5928Z" fill="white"/>
<path fill-rule="evenodd" clip-rule="evenodd" d="M77.9357 45.5015V55.5982C77.9357 65.6466 69.7622 73.8201 59.7152 73.8201C49.6668 73.8201 41.4933 65.6466 41.4933 55.5982V45.5015H39.686V55.5982C39.686 66.642 48.6714 75.6274 59.7152 75.6274C70.7576 75.6274 79.743 66.642 79.743 55.5982V45.5015H77.9357Z" fill="white"/>
<path fill-rule="evenodd" clip-rule="evenodd" d="M59.7153 69.2592C67.523 69.2592 73.874 62.9069 73.874 55.0992V36.9436C73.874 29.1359 67.523 22.7837 59.7153 22.7837C51.9076 22.7837 45.5566 29.1359 45.5566 36.9436V37.8473H52.7475L55.438 40.3122H55.4559L55.9924 40.8411H67.2528L67.7805 40.3122L67.9589 40.135L69.5878 38.5049H56.139L53.4498 36.04H47.3958C47.8597 29.6495 53.2089 24.591 59.7153 24.591C66.5264 24.591 72.0667 30.1326 72.0667 36.9436V55.0992C72.0667 61.9103 66.5264 67.4519 59.7153 67.4519C52.9043 67.4519 47.3639 61.9103 47.3639 55.0992V53.761H58.14L59.9473 51.9537H47.3639V47.3386H50.5094L52.903 44.9464H55.4763L56.0409 45.5021H62.5919L63.1476 44.9464L63.298 44.796L64.9536 43.1391H52.1561L49.7626 45.5314H45.5566V55.0992C45.5566 62.9069 51.9076 69.2592 59.7153 69.2592Z" fill="white"/>
</svg>
