<svg width="91" height="101" viewBox="0 0 91 101" fill="none" xmlns="http://www.w3.org/2000/svg">
<rect width="90" height="100" transform="translate(0.5 0.400879)" fill="#041E42"/>
<path fill-rule="evenodd" clip-rule="evenodd" d="M60.8555 55.1687V55.1655H49.2695V56.6536H59.5191L60.8555 55.1687Z" fill="white"/>
<path fill-rule="evenodd" clip-rule="evenodd" d="M49.27 60.6687H55.905L57.2443 59.1807H49.27V60.6687Z" fill="white"/>
<path fill-rule="evenodd" clip-rule="evenodd" d="M62.6748 57.366L60.8558 59.3578L59.6572 60.6686L57.2205 63.3362L50.1878 71.0358L46.987 67.4793L42.5621 62.5628L42.3175 62.2899L41.3711 63.3415L42.5621 64.6658L45.4106 67.8309L50.1803 73.1305L59.1274 63.3362L62.6748 59.4533L67.8884 53.7455V51.6582L62.6748 57.366Z" fill="white"/>
<path fill-rule="evenodd" clip-rule="evenodd" d="M61.2097 66.222V77.2451H33.4022V59.5906H32.4643V77.2451H29.5903V50.9287H32.4539L35.4933 47.5506H38.9236L39.5545 48.5517H47.9661L50.2064 46.0625H34.9389L31.8986 49.4406H28.251V78.7332H62.5489V66.222H61.2097Z" fill="white"/>
<path fill-rule="evenodd" clip-rule="evenodd" d="M38.9742 40.8862L39.8006 41.7898H54.0529L54.7537 41.0101L54.9501 40.7928L56.0929 39.522H39.6164L36.2002 36.0421H29.5907V23.555H59.4874C60.8135 23.555 61.893 24.7534 61.893 26.2268V50.6847H63.2323V26.2268C63.2323 23.9328 61.553 22.0669 59.4874 22.0669H28.2515V37.5302H35.6798L38.9742 40.8862Z" fill="white"/>
</svg>
