<svg width="120" height="121" viewBox="0 0 120 121" fill="none" xmlns="http://www.w3.org/2000/svg">
<rect y="0.106934" width="120" height="120" fill="#041E42"/>
<path fill-rule="evenodd" clip-rule="evenodd" d="M80.4727 65.829V65.8252H65.0247V67.6109H78.6907L80.4727 65.829Z" fill="white"/>
<path fill-rule="evenodd" clip-rule="evenodd" d="M65.0252 72.4293H73.8719L75.6576 70.6436H65.0252V72.4293Z" fill="white"/>
<path fill-rule="evenodd" clip-rule="evenodd" d="M82.8986 68.4656L80.4732 70.8558L78.8751 72.4287L75.6261 75.6298L66.2493 84.8694L61.9814 80.6016L56.0816 74.7017L55.7554 74.3743L54.4936 75.6361L56.0816 77.2254L59.8797 81.0234L66.2392 87.383L78.1686 75.6298L82.8986 70.9704L89.85 64.121V61.6162L82.8986 68.4656Z" fill="white"/>
<path fill-rule="evenodd" clip-rule="evenodd" d="M80.9449 79.0932V92.321H43.8683V71.1356H42.6178V92.321H38.7857V60.7413H42.6039L46.6564 56.6876H51.2302L52.0714 57.8889H63.2869L66.2739 54.9019H45.9172L41.8635 58.9556H37V94.1067H82.7306V79.0932H80.9449Z" fill="white"/>
<path fill-rule="evenodd" clip-rule="evenodd" d="M51.2977 48.6902L52.3996 49.7744H71.4025L72.337 48.8388L72.5989 48.5781L74.1227 47.053H52.154L47.5991 42.8772H38.7864V27.8926H78.6486C80.4167 27.8926 81.8561 29.3308 81.8561 31.0988V60.4483H83.6418V31.0988C83.6418 28.346 81.4027 26.1069 78.6486 26.1069H37.0007V44.6629H46.9052L51.2977 48.6902Z" fill="white"/>
</svg>
