<svg width="91" height="101" viewBox="0 0 91 101" fill="none" xmlns="http://www.w3.org/2000/svg">
<rect width="90" height="100" transform="translate(0.5 0.400879)" fill="#041E42"/>
<path fill-rule="evenodd" clip-rule="evenodd" d="M49.4806 69.6226H47.8877V78.7742H43.1137V69.6226H41.5208V78.7742H32.8027V80.3671H41.5208H49.4806H58.1975V78.7742H49.4806V69.6226Z" fill="white"/>
<path fill-rule="evenodd" clip-rule="evenodd" d="M61.5595 40.457V49.3559C61.5595 58.2122 54.3557 65.416 45.5006 65.416C36.6443 65.416 29.4405 58.2122 29.4405 49.3559V40.457H27.8477V49.3559C27.8477 59.0895 35.767 67.0089 45.5006 67.0089C55.233 67.0089 63.1524 59.0895 63.1524 49.3559V40.457H61.5595Z" fill="white"/>
<path fill-rule="evenodd" clip-rule="evenodd" d="M45.5009 61.3963C52.3823 61.3963 57.9798 55.7977 57.9798 48.9163V32.9146C57.9798 26.0332 52.3823 20.4346 45.5009 20.4346C38.6195 20.4346 33.022 26.0332 33.022 32.9146V33.711H39.3597L41.731 35.8835H41.7468L42.2197 36.3497H52.1442L52.6092 35.8835L52.7665 35.7274L54.2021 34.2907H42.3489L39.9787 32.1182H34.6429C35.0518 26.4859 39.7664 22.0274 45.5009 22.0274C51.5039 22.0274 56.3869 26.9116 56.3869 32.9146V48.9163C56.3869 54.9193 51.5039 59.8034 45.5009 59.8034C39.4979 59.8034 34.6148 54.9193 34.6148 48.9163V47.7368H44.1125L45.7053 46.1439H34.6148V42.0764H37.3872L39.4968 39.9679H41.7647L42.2624 40.4577H48.0362L48.526 39.9679L48.6585 39.8354L50.1177 38.3751H38.8385L36.7289 40.4835H33.022V48.9163C33.022 55.7977 38.6195 61.3963 45.5009 61.3963Z" fill="white"/>
</svg>
