<svg width="110" height="121" fill="none" xmlns="http://www.w3.org/2000/svg"><path transform="translate(0 .612)" fill="#041E42" d="M0 0H110V120H0z"/><path fill-rule="evenodd" clip-rule="evenodd" d="M67.786 65.38v-.003H56.2v1.488h10.25l1.336-1.485zM56.2 70.882h6.635l1.34-1.488H56.2v1.488z" fill="#fff"/><path fill-rule="evenodd" clip-rule="evenodd" d="M69.605 67.579l-1.819 1.992-1.199 1.31-2.436 2.668-7.033 7.7-3.2-3.557-4.426-4.916-.244-.273-.947 1.051 1.191 1.325 2.849 3.165 4.77 5.3 8.947-9.795 3.547-3.883 5.214-5.708v-2.087l-5.214 5.708z" fill="#fff"/><path fill-rule="evenodd" clip-rule="evenodd" d="M68.14 76.435v11.023H40.332V69.804h-.938v17.654H36.52V61.142h2.864l3.04-3.379h3.43l.63 1.002h8.412l2.24-2.49H41.87l-3.04 3.379H35.18v29.292H69.48V76.435h-1.34z" fill="#fff"/><path fill-rule="evenodd" clip-rule="evenodd" d="M45.904 51.099l.827.903h14.252l.7-.78.197-.217 1.143-1.27H46.547l-3.417-3.48h-6.61V33.767h29.898c1.326 0 2.405 1.199 2.405 2.672v24.458h1.34V36.44c0-2.294-1.68-4.16-3.745-4.16H35.182v15.464h7.428l3.294 3.356z" fill="#fff"/></svg>