<svg width="110" height="121" fill="none" xmlns="http://www.w3.org/2000/svg"><path transform="translate(0 .612)" fill="#041E42" d="M0 0H110V120H0z"/><path fill-rule="evenodd" clip-rule="evenodd" d="M58.98 79.835h-1.592v9.152h-4.774v-9.152H51.02v9.152h-8.718v1.593H67.698v-1.593H58.98v-9.152zM71.06 50.669v8.899c0 8.856-7.204 16.06-16.06 16.06-8.856 0-16.06-7.204-16.06-16.06v-8.9h-1.592v8.9C37.348 69.3 45.267 77.22 55 77.22c9.732 0 17.651-7.92 17.651-17.653v-8.9H71.06z" fill="#fff"/><path fill-rule="evenodd" clip-rule="evenodd" d="M55 71.608c6.882 0 12.48-5.598 12.48-12.48V43.126c0-6.88-5.598-12.48-12.48-12.48-6.88 0-12.478 5.6-12.478 12.48v.797h6.338l2.371 2.172h.016l.473.467h9.924l.465-.466.157-.157 1.436-1.436H51.85l-2.37-2.173h-5.336c.409-5.632 5.123-10.09 10.858-10.09 6.003 0 10.886 4.883 10.886 10.886v16.002c0 6.003-4.883 10.887-10.886 10.887-6.003 0-10.886-4.884-10.886-10.887v-1.18h9.497l1.593-1.592h-11.09v-4.068h2.772l2.11-2.108h2.268l.497.49h5.774l.49-.49.132-.133 1.46-1.46h-11.28l-2.11 2.108h-3.706v8.433c0 6.882 5.598 12.48 12.479 12.48" fill="#fff"/></svg>