<svg width="91" height="101" viewBox="0 0 91 101" fill="none" xmlns="http://www.w3.org/2000/svg">
<rect width="90" height="100" transform="translate(0.5 0.400879)" fill="#041E42"/>
<path fill-rule="evenodd" clip-rule="evenodd" d="M46.708 19.9043C31.1537 19.9043 18.5 33.8234 18.5 50.932V51.7472H25.154V50.1168H19.9916C20.3846 34.2822 32.2188 21.5347 46.708 21.5347C61.1972 21.5347 73.0305 34.2822 73.4235 50.1168H68.6394V51.7472H74.915V50.932C74.915 33.8234 62.2613 19.9043 46.708 19.9043Z" fill="white"/>
<path fill-rule="evenodd" clip-rule="evenodd" d="M53.6593 30.4923L52.6381 30.0347V35.4846V45.8555V53.4256L49.3058 57.4256L48.3965 58.442V78.4124L49.1731 79.2667L49.3895 79.5047L50.6553 80.897V58.2178L54.1202 54.0591V32.5021C58.9273 35.0718 62.3463 39.9514 63.3581 45.7716C64.5717 52.7507 62.1373 59.7723 57.0041 64.0955L57.9051 65.389C63.4856 60.6887 66.1343 53.0542 64.8142 45.4657C63.6372 38.6982 59.4667 33.1 53.6593 30.4923Z" fill="white"/>
<path fill-rule="evenodd" clip-rule="evenodd" d="M40.7763 38.5343H49.8658L51.3448 36.9074V36.9039H40.7763V31.2459L40.6895 30.0674L39.6663 30.5307C31.6158 34.1801 26.9623 43.6657 28.6013 53.0846C29.4469 57.947 31.8708 62.2897 35.4267 65.3136L36.333 64.0247C33.0634 61.2434 30.8339 57.2491 30.0563 52.7799C28.6191 44.5165 32.4457 36.1991 39.2941 32.506V49.4985L42.6588 53.1996V57.0329L41.6606 58.1425V71.0038L42.6536 72.0949L42.6588 71.942V72.1007L43.9852 73.5597H44.1409V52.5235L40.7763 48.8224V42.9333H45.8666L47.3488 41.3029H40.7763V38.5343Z" fill="white"/>
</svg>
